<svg width="286" height="47" viewBox="0 0 286 47" fill="none" xmlns="http://www.w3.org/2000/svg">
<path d="M33.424 18.816C33.424 21.472 33.088 23.888 32.416 26.064C31.776 28.208 30.784 30.064 29.44 31.632C28.128 33.2 26.432 34.4 24.352 35.232C22.304 36.064 19.888 36.48 17.104 36.48C14.32 36.48 11.888 36.064 9.808 35.232C7.76 34.368 6.064 33.168 4.72 31.632C3.408 30.064 2.416 28.192 1.744 26.016C1.104 23.84 0.784 21.424 0.784 18.768C0.784 15.216 1.36 12.128 2.512 9.504C3.696 6.88 5.488 4.848 7.888 3.408C10.32 1.936 13.408 1.2 17.152 1.2C20.864 1.2 23.92 1.936 26.32 3.408C28.72 4.848 30.496 6.896 31.648 9.552C32.832 12.176 33.424 15.264 33.424 18.816ZM8.416 18.816C8.416 21.216 8.72 23.28 9.328 25.008C9.936 26.736 10.88 28.064 12.16 28.992C13.44 29.92 15.088 30.384 17.104 30.384C19.184 30.384 20.848 29.92 22.096 28.992C23.376 28.064 24.304 26.736 24.88 25.008C25.488 23.28 25.792 21.216 25.792 18.816C25.792 15.2 25.12 12.368 23.776 10.32C22.432 8.272 20.224 7.248 17.152 7.248C15.104 7.248 13.44 7.712 12.16 8.64C10.88 9.568 9.936 10.896 9.328 12.624C8.72 14.352 8.416 16.416 8.416 18.816ZM110.864 36V9.408H105.008V12.96C102.8 10.032 100.16 8.784 96.3198 8.784C88.4478 8.784 82.7838 14.688 82.7838 22.8C82.7838 30.816 88.3997 36.624 96.1758 36.624C99.9198 36.624 102.464 35.424 105.008 32.544V36H110.864ZM104.816 22.896C104.816 27.312 101.936 30.768 97.0878 30.768C92.4318 30.768 89.2158 27.6 89.2158 22.944C89.2158 18.096 92.4318 14.64 96.9918 14.64C101.552 14.64 104.816 18.048 104.816 22.896ZM127.719 14.928V8.784H127.239C124.503 8.784 123.159 9.552 121.479 12V9.408H115.623V36H122.007V21.216C122.007 17.088 123.879 15.024 127.719 14.928ZM156.373 9.408H149.029L142.597 26.64L136.693 9.408H129.397L139.141 33.504L134.149 44.88H141.013L156.373 9.408ZM175.894 27.552C175.894 23.616 174.07 21.504 168.502 19.776C164.134 18.384 163.99 18.288 163.99 16.896C163.99 15.6 165.046 14.64 166.438 14.64C167.782 14.64 168.646 15.36 168.934 16.752H175.174C174.934 11.76 170.95 8.784 166.438 8.784C161.494 8.784 157.606 12.336 157.606 16.896C157.606 20.784 159.718 22.992 164.998 24.768C169.27 26.208 169.51 26.64 169.51 28.176C169.51 29.664 168.262 30.768 166.63 30.768C164.758 30.768 163.702 29.808 163.078 27.552H156.646C157.318 33.744 161.11 36.624 166.39 36.624C171.718 36.624 175.894 32.64 175.894 27.552ZM203.035 36V20.976C203.035 12.24 199.003 8.736 192.619 8.736C189.883 8.736 187.771 9.504 185.851 11.232V0.527999H179.467V36H185.851V22.512C185.851 16.656 187.819 14.64 191.467 14.64C195.211 14.64 196.651 16.848 196.651 22.416V36H203.035ZM232.296 36L221.256 22.416L230.76 9.408H223.128L214.632 21.936V0.527999H208.248V36H214.632V23.568L223.704 36H232.296ZM260.293 23.088C260.293 14.832 254.485 8.784 246.565 8.784C238.741 8.784 232.549 14.976 232.549 22.8C232.549 30.576 238.837 36.624 246.949 36.624C252.325 36.624 257.845 33.6 259.621 28.128H252.661C251.029 30.048 249.445 30.768 246.805 30.768C243.013 30.768 240.229 28.752 239.461 25.536H260.053C260.245 24.624 260.293 24.048 260.293 23.088ZM254.005 19.92H239.269C240.277 16.512 242.869 14.64 246.661 14.64C250.597 14.64 253.189 16.512 254.005 19.92ZM276.501 14.928V8.784H276.021C273.285 8.784 271.941 9.552 270.261 12V9.408H264.405V36H270.789V21.216C270.789 17.088 272.661 15.024 276.501 14.928ZM285.574 36V29.856H279.19V36H285.574Z" fill="white"/>
<path d="M78.9843 30.96V9.408H72.8883V12.768C70.9203 10.08 68.0403 8.784 64.2003 8.784C56.6643 8.784 51.0963 14.64 51.0963 22.512C51.0963 30.72 56.5683 36.624 64.1523 36.624C67.8963 36.624 70.3923 35.424 72.8883 32.496C72.6483 38.208 70.2003 40.992 65.4483 40.992C62.4723 40.992 60.6483 40.224 58.7763 38.16H51.5283C53.6883 43.488 58.6803 46.608 65.2083 46.608C73.4643 46.608 78.9843 42.384 78.9843 30.96ZM72.6003 22.8C72.6003 27.6 69.5763 30.768 65.0163 30.768C60.4563 30.768 57.5283 27.648 57.5283 22.8C57.5283 17.904 60.4563 14.64 64.9203 14.64C69.4803 14.64 72.6003 17.952 72.6003 22.8Z" fill="#FFA800"/>
</svg>
