<svg width="26" height="24" viewBox="0 0 26 24" fill="none" xmlns="http://www.w3.org/2000/svg">
<path fill-rule="evenodd" clip-rule="evenodd" d="M9.98927 16.0078C14.6005 16.0078 18.5418 16.7066 18.5418 19.4978C18.5418 22.2891 14.6268 23.0078 9.98927 23.0078C5.37677 23.0078 1.43677 22.3153 1.43677 19.5228C1.43677 16.7303 5.35052 16.0078 9.98927 16.0078Z" stroke="white" stroke-width="1.5" stroke-linecap="round" stroke-linejoin="round"/>
<path fill-rule="evenodd" clip-rule="evenodd" d="M9.98934 12.025C6.96184 12.025 4.50684 9.57125 4.50684 6.54375C4.50684 3.51625 6.96184 1.0625 9.98934 1.0625C13.0156 1.0625 15.4706 3.51625 15.4706 6.54375C15.4818 9.56 13.0443 12.0138 10.0281 12.025H9.98934Z" stroke="white" stroke-width="1.5" stroke-linecap="round" stroke-linejoin="round"/>
<path d="M18.6038 10.6006C20.605 10.3194 22.1463 8.60188 22.15 6.52313C22.15 4.47437 20.6563 2.77437 18.6975 2.45312" stroke="white" stroke-width="1.5" stroke-linecap="round" stroke-linejoin="round"/>
<path d="M21.2441 15.4141C23.1829 15.7028 24.5366 16.3828 24.5366 17.7828C24.5366 18.7466 23.8991 19.3716 22.8691 19.7628" stroke="white" stroke-width="1.5" stroke-linecap="round" stroke-linejoin="round"/>
</svg>
