<svg width="20" height="22" viewBox="0 0 20 22" fill="none" xmlns="http://www.w3.org/2000/svg">
<path d="M19.3951 0.917041C19.3951 0.413568 18.9815 0 18.478 0H4.13355C2.1646 0 0.604736 1.55987 0.604736 3.48386C0.604736 3.48386 0.604736 19.1949 0.604736 19.2039C0.604736 20.7638 1.8859 22 3.44577 22H18.4331C18.8017 22 19.1658 21.7707 19.3052 21.4021C19.4445 21.0335 19.3501 20.6244 19.031 20.3952C18.2173 19.8782 18.1679 18.7454 18.8916 18.2419C19.0445 18.0891 19.3906 17.7744 19.3636 17.3249C19.3861 17.253 19.3951 0.917041 19.3951 0.917041ZM2.43882 19.2039C2.43882 18.6555 2.89734 18.2419 3.44577 18.2419H16.6485C16.2439 18.9162 16.3293 19.7074 16.6485 20.1659H3.44577C2.89734 20.1659 2.43882 19.7568 2.43882 19.2039ZM17.5655 16.4078H3.45026C3.09513 16.4078 2.75798 16.4753 2.44331 16.5966V3.48386C2.44331 2.56682 3.221 1.83408 4.13804 1.83408H17.57V16.4078H17.5655Z" fill="white"/>
</svg>
