<svg width="48" height="48" viewBox="0 0 48 48" fill="none" xmlns="http://www.w3.org/2000/svg">
<g id="Iconly/Light/Bag">
<g id="Bag">
<path id="Path_33955" fill-rule="evenodd" clip-rule="evenodd" d="M33.0275 43.0006H16.3318C10.1991 43.0006 5.4943 40.7855 6.83069 31.8701L8.38675 19.7877C9.21055 15.3392 12.0481 13.6367 14.5378 13.6367H34.8948C37.4211 13.6367 40.0938 15.4674 41.0458 19.7877L42.6019 31.8701C43.7369 39.7786 39.1602 43.0006 33.0275 43.0006Z" stroke="white" stroke-width="1.5" stroke-linecap="round" stroke-linejoin="round"/>
<path id="Path_33956" d="M33.302 13.1955C33.302 8.42335 29.4334 4.55477 24.6612 4.55477V4.55477C22.3632 4.54503 20.156 5.45109 18.5276 7.0726C16.8993 8.6941 15.9839 10.8975 15.9839 13.1955H15.9839" stroke="white" stroke-width="1.5" stroke-linecap="round" stroke-linejoin="round"/>
<path id="Line_192" d="M30.5927 22.2005H30.5012" stroke="white" stroke-width="1.5" stroke-linecap="round" stroke-linejoin="round"/>
<path id="Line_193" d="M18.9313 22.2005H18.8398" stroke="white" stroke-width="1.5" stroke-linecap="round" stroke-linejoin="round"/>
</g>
</g>
</svg>
