<svg width="136" height="164" viewBox="0 0 136 164" fill="none" xmlns="http://www.w3.org/2000/svg">
<g clip-path="url(#clip0_2004_66)">
<path d="M3.95258 147.944L0.683975 146.025L0.683975 111.389L3.95258 113.308L6.38278 130.542L3.95258 147.944Z" fill="white"/>
<path d="M3.95331 102.979V147.944L14.372 141.826V96.8616L3.95331 102.979Z" fill="#BA5C25"/>
<path d="M6.6471 115.489L14.4133 110.929L39.3111 137.804L31.545 142.364L6.6471 115.489Z" fill="white"/>
<path d="M7.98652 114.123L15.7527 109.563L40.6506 136.439L32.8844 140.999L7.98652 114.123Z" fill="#BA5C25"/>
<path d="M19.2459 96.3303L15.1423 93.9206L15.1417 93.9219C14.8724 93.6926 14.4752 93.6259 14.1285 93.8297L1.32995 101.345C0.511066 101.825 0.00650787 102.714 0.00650787 103.676L0.00650787 113.984C0.00650787 114.289 0.149497 114.544 0.359572 114.704L0.361147 114.705C0.418154 114.748 0.479885 114.785 0.545081 114.813L4.66092 117.23L19.2459 96.3303Z" fill="url(#paint0_linear_2004_66)"/>
<path d="M5.43835 103.757L18.2369 96.2417C18.8277 95.8948 19.5666 96.3285 19.5666 97.0223V107.331C19.5666 108.293 19.0621 109.181 18.2432 109.662L5.44465 117.177C4.85379 117.524 4.11491 117.09 4.11491 116.396V106.088C4.11491 105.126 4.61946 104.237 5.43835 103.757Z" fill="url(#paint1_linear_2004_66)"/>
<path d="M14.1199 37.232C11.3042 35.5788 7.69801 36.5017 5.17207 37.8332C2.40298 39.2929 0.385373 42.2064 0.385373 45.8311L0.37624 99.7523C0.37624 100.384 0.73151 100.888 1.21591 101.139L1.21465 101.14L4.88798 103.385L19.5668 48.3609L36.9353 58.5591V48.8347L14.1199 37.232Z" fill="white"/>
<path d="M29.0994 28.9511C25.8816 27.0616 22.2278 27.4937 19.5673 29.3973L5.08222 37.8859C7.6236 36.5083 10.8157 36.3597 13.6654 38.0333L36.9355 51.6969L52.3693 42.6147L29.0994 28.9511Z" fill="#FFA538"/>
<path d="M6.64509 106.159V113.44L17.0638 107.322V100.041L6.64509 106.159Z" fill="#BA5C25"/>
<path d="M10.9389 43.2964C7.91283 41.5196 4.13052 43.7406 4.13052 47.2939V102.042C4.13052 103.242 5.40767 103.992 6.4297 103.392L12.7137 99.7025L17.8103 96.7098C18.896 96.0723 19.5646 94.8946 19.5646 93.6197V48.3608L10.9389 43.2964Z" fill="#BA5C25"/>
<path d="M61.5134 9.7045C57.6851 7.45655 52.2213 9.08501 49.5675 11.98C48.13 13.5479 47.2195 15.6623 47.2195 18.0976L47.2103 72.0187C47.2103 72.6504 47.5656 73.1549 48.05 73.4057L48.0488 73.4069L51.7221 75.6514L62.6532 18.4272L83.7691 30.8259V23.9638L61.5134 9.7045Z" fill="white"/>
<path d="M75.9314 1.21823C72.7135 -0.671289 69.0597 -0.239188 66.3993 1.66443L51.9142 10.153C54.4556 8.77537 57.6476 8.62674 60.4974 10.3004L83.7675 23.9639L99.2019 14.8818L75.9314 1.21823Z" fill="#FFA538"/>
<path d="M57.7751 15.5634C54.749 13.7867 50.9667 16.0077 50.9667 19.5609V74.3094C50.9667 75.5092 52.2438 76.2591 53.2658 75.6592L59.5499 71.9695L64.6465 68.9768C65.7321 68.3394 66.4008 67.1616 66.4008 65.8867V20.6279L57.7751 15.5634Z" fill="#BA5C25"/>
<path d="M124.01 27.9521L98.5303 12.9912C93.2173 9.41622 86.0772 8.69712 79.7734 12.3987L58.3376 24.9853C39.9776 35.7658 28.6675 55.6889 28.6675 77.2498V140.733C28.6675 143.794 30.3569 146.247 32.6772 147.496L59.3498 163.186L124.01 27.9521Z" fill="url(#paint2_linear_2004_66)"/>
<path d="M55.1724 156.334V92.8506C55.1724 71.2897 66.4827 51.3666 84.8425 40.5862L106.278 27.9995C118.155 21.0257 133.002 29.743 133.002 43.6906V110.343C133.002 118.725 128.605 126.471 121.467 130.662L66.6267 162.863C61.6119 165.984 55.1724 162.313 55.1724 156.334Z" fill="url(#paint3_linear_2004_66)"/>
<path d="M129.151 82.2336L119.045 76.2911C115 73.5694 109.564 73.0223 104.765 75.8401L88.4467 85.4219C74.4696 93.6287 65.8593 108.796 65.8593 125.21V150.737C65.8593 153.067 67.1456 154.935 68.9119 155.886L79.9262 162.383L129.151 82.2336Z" fill="url(#paint4_linear_2004_66)"/>
<path d="M76.7456 157.167V131.64C76.7456 115.226 85.3558 100.059 99.3326 91.852L115.651 82.2702C124.693 76.961 135.995 83.5976 135.995 94.2156V122.156C135.995 128.537 132.648 134.433 127.214 137.624L85.4657 162.137C81.6479 164.513 76.7456 161.719 76.7456 157.167Z" fill="url(#paint5_linear_2004_66)"/>
<path d="M109.715 78.6629L93.3963 88.2448C79.4192 96.4515 70.8089 111.619 70.8089 128.032L73.5856 129.663C73.5881 113.252 82.1977 98.0876 96.1726 89.8819L112.491 80.3C116.492 77.9509 120.934 77.9438 124.645 79.5825C120.546 76.464 114.777 75.6904 109.715 78.6629Z" fill="url(#paint6_linear_2004_66)"/>
<path d="M93.7277 20.4661L72.2918 33.0528C53.9318 43.8333 42.6218 63.7564 42.6218 85.3172L45.4277 86.9377V86.8352C45.4277 65.2743 56.7381 45.3512 75.0978 34.5708L96.5336 21.9841C101.499 19.0683 106.984 18.8969 111.685 20.7025C106.292 16.5052 100.443 16.5234 93.7277 20.4661Z" fill="url(#paint7_linear_2004_66)"/>
<path d="M85.7157 14.4213L79.1741 10.5801C78.9848 10.442 78.7898 10.3094 78.5845 10.1887C76.4308 8.92409 73.8592 8.92441 71.7062 10.1887L62.4657 15.6148C57.8305 18.3365 54.9512 23.4086 54.9512 28.8517V33.625L61.513 37.4809C61.513 37.4809 63.6203 27.7248 66.9803 24.203C70.3399 20.6812 78.29 18.4156 78.29 18.4156V19.9211L84.8521 23.777L85.7157 14.4213Z" fill="#DEA861"/>
<path d="M65.2468 32.7078C65.2468 28.6168 67.4112 24.8044 70.8949 22.7586L80.1351 17.3328C81.1196 16.755 82.2954 16.7543 83.2802 17.3328C84.2648 17.911 84.8528 18.9465 84.8528 20.1029V23.7769L88.586 21.585V20.1029C88.586 17.574 87.3003 15.3094 85.1473 14.0451C82.9936 12.7805 80.422 12.7809 78.269 14.0451L69.0288 19.4709C64.3936 22.1926 61.5143 27.2647 61.5143 32.7078V37.4811L65.2475 35.2892V32.7078H65.2468Z" fill="#EBCBA0"/>
<path d="M52.2305 133.766L30.2564 120.866L23.4871 140.396C22.5495 143.101 24.0836 145.626 26.3053 146.471L47.9478 159.179L52.2305 133.766Z" fill="#CC8241"/>
<path d="M52.2304 133.766L45.4611 153.296C44.0129 157.474 48.4582 161.228 52.2304 159.013V133.766Z" fill="#DEA861"/>
<path d="M30.2568 114.215C35.2429 120.09 41.8528 124.301 49.2256 126.302L52.2309 127.117V133.767L49.3941 133.033C41.9246 131.103 35.2344 126.848 30.2568 120.864V114.215Z" fill="#DEA861"/>
<path d="M87.219 58.6454L104.292 48.6206C105.216 48.0783 106.37 48.7561 106.37 49.8409V64.8165C106.37 65.993 105.753 67.0805 104.751 67.6686L87.6778 77.6934C86.7541 78.2357 85.5998 77.5579 85.5998 76.473V61.4974C85.5998 60.3209 86.2171 59.2338 87.219 58.6454Z" fill="white"/>
<path d="M102.92 131.918L119.993 121.894C120.917 121.351 122.071 122.029 122.071 123.114V133.056C122.071 134.232 121.454 135.32 120.452 135.908L103.379 145.933C102.455 146.475 101.3 145.797 101.3 144.712V134.771C101.301 133.594 101.918 132.507 102.92 131.918Z" fill="white"/>
<path d="M90.7994 60.2833L94.0989 58.3457V70.1957L90.7994 72.133V60.2833Z" fill="#683415"/>
<path d="M97.8694 56.1184L101.169 54.1808V66.0308L97.8694 67.9684V56.1184Z" fill="#683415"/>
<path d="M129.694 103.558C132.367 97.1777 131.657 90.7584 128.108 89.2204C124.558 87.6824 119.514 91.608 116.841 97.9885C114.168 104.369 114.878 110.788 118.427 112.326C121.977 113.864 127.021 109.939 129.694 103.558Z" fill="#FFC538"/>
<path d="M129.326 103.238C131.691 97.5948 131.062 91.9177 127.923 90.5575C124.784 89.1973 120.323 92.669 117.959 98.3117C115.595 103.954 116.223 109.631 119.362 110.992C122.501 112.352 126.962 108.88 129.326 103.238Z" fill="#F7E041"/>
<path d="M122.312 98.7938C122.312 97.5541 121.571 96.9846 120.657 97.5211C119.743 98.058 119.002 99.4978 119.002 100.737C119.002 101.977 119.743 102.547 120.657 102.01C121.571 101.473 122.312 100.033 122.312 98.7938Z" fill="#565D68"/>
<path d="M128.194 95.3413C128.194 94.1017 127.453 93.5322 126.539 94.0687C125.625 94.6056 124.884 96.0454 124.884 97.285C124.884 98.5246 125.625 99.0941 126.539 98.5576C127.453 98.0207 128.194 96.5809 128.194 95.3413Z" fill="#565D68"/>
<path d="M123.597 107.361C120.242 109.332 118.415 106.479 118.339 106.356C118.113 105.993 118.227 105.275 118.593 104.754C118.958 104.234 119.436 104.105 119.663 104.466C119.677 104.488 121.123 106.701 123.597 105.249C126.071 103.796 127.517 99.8852 127.531 99.8461C127.76 99.2192 128.239 98.7865 128.603 98.8797C128.968 98.9732 129.081 99.5543 128.855 100.182C128.779 100.394 126.953 105.391 123.597 107.361Z" fill="#565D68"/>
<path opacity="0.5" d="M129.563 93.6061C129.29 92.3515 127.949 91.1974 126.569 91.0283C125.189 90.8591 124.292 91.739 124.565 92.9934C124.838 94.248 126.178 95.4021 127.559 95.5712C128.939 95.7407 129.836 94.8608 129.563 93.6061Z" fill="white"/>
</g>
<defs>
<linearGradient id="paint0_linear_2004_66" x1="4.45525" y1="108.751" x2="7.01883" y2="104.385" gradientUnits="userSpaceOnUse">
<stop stop-color="#41464E"/>
<stop offset="0.4124" stop-color="#4C525C"/>
<stop offset="0.8982" stop-color="#565D68"/>
</linearGradient>
<linearGradient id="paint1_linear_2004_66" x1="11.8408" y1="118.354" x2="11.8408" y2="97.8484" gradientUnits="userSpaceOnUse">
<stop stop-color="#565D68"/>
<stop offset="0.1002" stop-color="#5C636F"/>
<stop offset="0.6138" stop-color="#78808F"/>
<stop offset="0.8982" stop-color="#838B9B"/>
</linearGradient>
<linearGradient id="paint2_linear_2004_66" x1="57.6119" y1="88.1705" x2="81.1392" y2="48.1013" gradientUnits="userSpaceOnUse">
<stop offset="0.0423" stop-color="#8B451C"/>
<stop offset="0.0644" stop-color="#8F481E"/>
<stop offset="0.3573" stop-color="#BB7237"/>
<stop offset="0.5056" stop-color="#CC8241"/>
<stop offset="1" stop-color="#D69B67"/>
</linearGradient>
<linearGradient id="paint3_linear_2004_66" x1="94.087" y1="146.818" x2="94.087" y2="33.6293" gradientUnits="userSpaceOnUse">
<stop offset="0.0423" stop-color="#CC8241"/>
<stop offset="0.2452" stop-color="#D18D50"/>
<stop offset="0.6319" stop-color="#DDAB76"/>
<stop offset="0.9972" stop-color="#EBCBA0"/>
</linearGradient>
<linearGradient id="paint4_linear_2004_66" x1="79.4043" y1="129.451" x2="98.9656" y2="96.137" gradientUnits="userSpaceOnUse">
<stop offset="0.0423" stop-color="#8B451C"/>
<stop offset="0.0644" stop-color="#8F481E"/>
<stop offset="0.3573" stop-color="#BB7237"/>
<stop offset="0.5056" stop-color="#CC8241"/>
<stop offset="1" stop-color="#D69B67"/>
</linearGradient>
<linearGradient id="paint5_linear_2004_66" x1="106.371" y1="165.362" x2="106.371" y2="97.8342" gradientUnits="userSpaceOnUse">
<stop offset="0.0423" stop-color="#CC8241"/>
<stop offset="0.2452" stop-color="#D18D50"/>
<stop offset="0.6319" stop-color="#DDAB76"/>
<stop offset="0.9972" stop-color="#EBCBA0"/>
</linearGradient>
<linearGradient id="paint6_linear_2004_66" x1="77.0879" y1="134.008" x2="102.258" y2="91.1422" gradientUnits="userSpaceOnUse">
<stop stop-color="#D7D1EB"/>
<stop offset="0.8982" stop-color="#E9E5F6"/>
</linearGradient>
<linearGradient id="paint7_linear_2004_66" x1="53.6698" y1="86.2916" x2="66.8165" y2="63.9013" gradientUnits="userSpaceOnUse">
<stop stop-color="#D7D1EB"/>
<stop offset="0.8982" stop-color="#E9E5F6"/>
</linearGradient>
<clipPath id="clip0_2004_66">
<rect width="136" height="164" fill="white"/>
</clipPath>
</defs>
</svg>
