<svg width="26" height="26" viewBox="0 0 26 26" fill="none" xmlns="http://www.w3.org/2000/svg">
<mask id="mask0_3335_3246" style="mask-type:alpha" maskUnits="userSpaceOnUse" x="0" y="0" width="26" height="26">
<path fill-rule="evenodd" clip-rule="evenodd" d="M0.166748 0.167969H25.2419V25.2441H0.166748V0.167969Z" fill="white"/>
</mask>
<g mask="url(#mask0_3335_3246)">
<path fill-rule="evenodd" clip-rule="evenodd" d="M6.12659 21.9555C6.80326 21.9555 7.44142 22.2121 8.11692 22.484C12.2551 24.3973 17.1493 23.527 20.3378 20.3396C24.5448 16.1303 24.5448 9.28314 20.3378 5.07614C18.3008 3.03914 15.5918 1.91797 12.7078 1.91797C9.82259 1.91797 7.11242 3.0403 5.07659 5.0773C1.88692 8.26464 1.01892 13.1588 2.91476 17.2573C3.18776 17.9328 3.45142 18.5908 3.45142 19.2745C3.45142 19.957 3.21692 20.6441 3.01042 21.2508C2.84009 21.7501 2.58226 22.5038 2.74792 22.6695C2.91009 22.8375 3.66842 22.5726 4.16892 22.4011C4.76976 22.1958 5.45109 21.9601 6.12659 21.9555V21.9555ZM12.6786 25.2443C10.8959 25.2443 9.10159 24.8675 7.42276 24.0905C6.92809 23.8921 6.46492 23.7055 6.13242 23.7055C5.74976 23.7078 5.23526 23.8851 4.73826 24.0566C3.71859 24.4066 2.44926 24.843 1.51009 23.9073C0.574425 22.9705 1.00609 21.7046 1.35376 20.6861C1.52526 20.1845 1.70142 19.6665 1.70142 19.2745C1.70142 18.9525 1.54626 18.5418 1.30826 17.9503C-0.876909 13.2311 0.133425 7.54364 3.83992 3.83947C6.20592 1.4723 9.35476 0.167969 12.7066 0.167969C16.0584 0.167969 19.2084 1.47114 21.5744 3.8383C26.4651 8.72897 26.4651 16.6856 21.5744 21.5763C19.1769 23.975 15.9488 25.2443 12.6786 25.2443V25.2443Z" fill="white"/>
</g>
<path fill-rule="evenodd" clip-rule="evenodd" d="M17.3124 14.3587C16.6684 14.3587 16.1411 13.8372 16.1411 13.1921C16.1411 12.5469 16.6579 12.0254 17.3019 12.0254H17.3124C17.9564 12.0254 18.4791 12.5469 18.4791 13.1921C18.4791 13.8372 17.9564 14.3587 17.3124 14.3587Z" fill="white"/>
<path fill-rule="evenodd" clip-rule="evenodd" d="M12.6354 14.3587C11.9914 14.3587 11.4641 13.8372 11.4641 13.1921C11.4641 12.5469 11.9798 12.0254 12.6249 12.0254H12.6354C13.2794 12.0254 13.8021 12.5469 13.8021 13.1921C13.8021 13.8372 13.2794 14.3587 12.6354 14.3587Z" fill="white"/>
<path fill-rule="evenodd" clip-rule="evenodd" d="M7.9582 14.3587C7.3142 14.3587 6.78687 13.8372 6.78687 13.1921C6.78687 12.5469 7.3037 12.0254 7.9477 12.0254H7.9582C8.6022 12.0254 9.12487 12.5469 9.12487 13.1921C9.12487 13.8372 8.6022 14.3587 7.9582 14.3587Z" fill="white"/>
</svg>
