<svg width="18" height="18" viewBox="0 0 18 18" fill="none" xmlns="http://www.w3.org/2000/svg">
<path fill-rule="evenodd" clip-rule="evenodd" d="M0.75 3.95833C0.75 1.55189 0.775767 0.75 3.95833 0.75C7.1409 0.75 7.16667 1.55189 7.16667 3.95833C7.16667 6.36478 7.17682 7.16667 3.95833 7.16667C0.73985 7.16667 0.75 6.36478 0.75 3.95833Z" stroke="white" stroke-width="1.5" stroke-linecap="round" stroke-linejoin="round"/>
<path fill-rule="evenodd" clip-rule="evenodd" d="M10.8333 3.95833C10.8333 1.55189 10.859 0.75 14.0416 0.75C17.2242 0.75 17.2499 1.55189 17.2499 3.95833C17.2499 6.36478 17.2601 7.16667 14.0416 7.16667C10.8231 7.16667 10.8333 6.36478 10.8333 3.95833Z" stroke="white" stroke-width="1.5" stroke-linecap="round" stroke-linejoin="round"/>
<path fill-rule="evenodd" clip-rule="evenodd" d="M0.75 14.0417C0.75 11.6353 0.775767 10.8334 3.95833 10.8334C7.1409 10.8334 7.16667 11.6353 7.16667 14.0417C7.16667 16.4482 7.17682 17.25 3.95833 17.25C0.73985 17.25 0.75 16.4482 0.75 14.0417Z" stroke="white" stroke-width="1.5" stroke-linecap="round" stroke-linejoin="round"/>
<path fill-rule="evenodd" clip-rule="evenodd" d="M10.8333 14.0417C10.8333 11.6353 10.859 10.8334 14.0416 10.8334C17.2242 10.8334 17.2499 11.6353 17.2499 14.0417C17.2499 16.4482 17.2601 17.25 14.0416 17.25C10.8231 17.25 10.8333 16.4482 10.8333 14.0417Z" stroke="white" stroke-width="1.5" stroke-linecap="round" stroke-linejoin="round"/>
</svg>
