<svg width="18" height="20" viewBox="0 0 18 20" fill="none" xmlns="http://www.w3.org/2000/svg">
<path fill-rule="evenodd" clip-rule="evenodd" d="M13.0504 1.38613C13.0084 1.07397 12.7428 0.833374 12.4216 0.833374C12.0711 0.833374 11.7869 1.1197 11.7869 1.47291V2.17989H6.22078V1.47291L6.21499 1.38613C6.17297 1.07397 5.90745 0.833374 5.58617 0.833374C5.23568 0.833374 4.95156 1.1197 4.95156 1.47291V2.19577C2.351 2.37488 0.75 4.05989 0.75 6.7786V14.4953C0.75 17.4133 2.54514 19.1666 5.42157 19.1666H12.5783C15.4582 19.1666 17.2499 17.4426 17.2499 14.5599V6.7786C17.2582 4.05891 15.6624 2.37438 13.0562 2.1957V1.47291L13.0504 1.38613ZM11.7869 3.45901V4.279L11.7927 4.36578C11.8348 4.67794 12.1003 4.91853 12.4216 4.91853C12.772 4.91853 13.0562 4.63221 13.0562 4.279V3.47792C14.9523 3.63568 15.9868 4.77752 15.9807 6.77668V7.14708H2.0192V6.77865C2.0192 4.78074 3.05929 3.63648 4.95156 3.47804V4.279L4.95735 4.36578C4.99937 4.67794 5.26489 4.91853 5.58617 4.91853C5.93666 4.91853 6.22078 4.63221 6.22078 4.279V3.45901H11.7869ZM2.0192 8.42615V14.4954C2.0192 16.6978 3.23736 17.8876 5.42154 17.8876H12.5783C14.77 17.8876 15.9807 16.7227 15.9807 14.5599L15.9807 8.42615H2.0192ZM13.4011 11.1168C13.4011 10.7636 13.1169 10.4773 12.7664 10.4773L12.6725 10.4831C12.3627 10.5254 12.124 10.793 12.124 11.1168C12.124 11.47 12.4081 11.7563 12.7664 11.7563L12.8526 11.7505C13.1623 11.7081 13.4011 11.4406 13.4011 11.1168ZM9.01174 10.4773C9.36223 10.4773 9.64635 10.7636 9.64635 11.1168C9.64635 11.4406 9.40761 11.7081 9.09785 11.7505L9.01174 11.7563C8.65341 11.7563 8.36929 11.47 8.36929 11.1168C8.36929 10.793 8.60803 10.5254 8.91779 10.4831L9.01174 10.4773ZM5.88373 11.1168C5.88373 10.7636 5.5996 10.4773 5.24912 10.4773L5.15516 10.4831C4.84541 10.5254 4.60666 10.793 4.60666 11.1168C4.60666 11.47 4.89079 11.7563 5.24128 11.7563L5.33523 11.7505C5.64498 11.7081 5.88373 11.4406 5.88373 11.1168ZM12.7664 13.7913C13.1169 13.7913 13.4011 14.0776 13.4011 14.4308C13.4011 14.7546 13.1623 15.0222 12.8526 15.0645L12.7664 15.0704C12.4081 15.0704 12.124 14.784 12.124 14.4308C12.124 14.1071 12.3627 13.8395 12.6725 13.7971L12.7664 13.7913ZM9.64635 14.4308C9.64635 14.0776 9.36223 13.7913 9.01174 13.7913L8.91779 13.7971C8.60803 13.8395 8.36929 14.1071 8.36929 14.4308C8.36929 14.784 8.65341 15.0704 9.01174 15.0704L9.09785 15.0645C9.40761 15.0222 9.64635 14.7546 9.64635 14.4308ZM5.24912 13.7913C5.5996 13.7913 5.88373 14.0776 5.88373 14.4308C5.88373 14.7546 5.64498 15.0222 5.33523 15.0645L5.24128 15.0704C4.89079 15.0704 4.60666 14.784 4.60666 14.4308C4.60666 14.1071 4.84541 13.8395 5.15516 13.7971L5.24912 13.7913Z" fill="white"/>
</svg>
