<svg width="11" height="10" viewBox="0 0 11 10" fill="none" xmlns="http://www.w3.org/2000/svg">
<path d="M6.94737 8.88889C6.62762 8.88889 6.36842 9.13762 6.36842 9.44444C6.36842 9.75127 6.62762 10 6.94737 10H9.8421C10.4816 10 11 9.50254 11 8.88889V1.11111C11 0.497461 10.4816 0 9.8421 0H6.94737C6.62762 0 6.36842 0.24873 6.36842 0.555556C6.36842 0.86238 6.62762 1.11111 6.94737 1.11111H9.8421V8.88889H6.94737Z" fill="#0C0B15"/>
<path d="M7.93946 5.38919C7.9931 5.33678 8.03372 5.27669 8.06133 5.21266C8.08943 5.14764 8.10503 5.07639 8.10526 5.00167L8.10526 5L8.10526 4.99833C8.10482 4.85671 8.0483 4.71522 7.93569 4.60716L5.6199 2.38494C5.39381 2.16798 5.02724 2.16798 4.80115 2.38494C4.57506 2.6019 4.57506 2.95366 4.80115 3.17061L6.12861 4.44444H0.578947C0.259203 4.44444 0 4.69317 0 5C0 5.30683 0.259203 5.55556 0.578947 5.55556H6.12861L4.80115 6.82939C4.57506 7.04634 4.57506 7.3981 4.80115 7.61506C5.02724 7.83202 5.39381 7.83202 5.6199 7.61506L7.93528 5.39323L7.93946 5.38919Z" fill="#0C0B15"/>
</svg>
