<svg width="25" height="22" viewBox="0 0 25 22" fill="none" xmlns="http://www.w3.org/2000/svg">
<g clip-path="url(#clip0_2004_1259)">
<path d="M1.65181 6.43555H0.971191V9.56219C0.971191 14.006 2.70199 15.9725 5.03042 17.8099C5.9708 18.5519 6.46148 18.9671 6.46148 19.5674V20.1928H11.9064V19.5674C11.9064 18.33 11.824 17.0609 11.6615 15.7955C11.2731 12.7708 8.62324 10.4497 5.38828 10.2083C5.33374 9.94289 5.28533 9.66037 5.24458 9.35912C5.01894 7.69242 3.4744 6.43555 1.65181 6.43555ZM6.83772 15.1242L7.44646 14.0055C7.44646 14.0055 7.45059 14.0072 7.45835 14.0112C7.44523 14.0045 6.43797 13.4701 5.74479 11.5084C8.12358 11.8772 10.0167 13.6603 10.3097 15.9421C10.4387 16.9465 10.5151 17.9529 10.5379 18.9421H7.73223C7.47654 18.0915 6.71494 17.4906 5.9173 16.8611C4.32017 15.6008 2.33242 14.0323 2.33242 9.56219V7.78321C3.15392 8.02376 3.78204 8.68827 3.89375 9.5135C4.1654 11.5197 5.10261 14.327 6.83772 15.1242Z" fill="white"/>
<path d="M24.2028 6.43555H23.5222C21.6996 6.43555 20.155 7.69242 19.9293 9.35912C19.8886 9.66032 19.8402 9.94289 19.7856 10.2083C16.5507 10.4497 13.9008 12.7708 13.5124 15.7956C13.3499 17.0609 13.268 18.33 13.268 19.5674L13.2676 20.1928H18.7125V19.5674C18.7125 18.9671 19.2032 18.5519 20.1435 17.8099C22.6042 15.8681 24.2028 13.899 24.2028 9.56219V6.43555ZM22.8415 9.56219C22.8415 14.0323 20.8538 15.6008 19.2566 16.8611C18.459 17.4906 17.6974 18.0916 17.4417 18.9421H14.636C14.6588 17.9529 14.7353 16.9465 14.8642 15.9421C15.1572 13.6603 17.0504 11.8772 19.4291 11.5084C18.736 13.4701 17.7287 14.0045 17.7156 14.0111C17.7233 14.0072 17.7275 14.0055 17.7275 14.0055L18.3362 15.1242C20.1044 14.3119 21.0189 11.4433 21.2802 9.51354C21.3919 8.68831 22.02 8.0238 22.8415 7.78325V9.56219H22.8415Z" fill="white"/>
<path d="M12.587 2.20618C12.1505 1.82861 11.472 1.43286 10.5452 1.43286C8.87144 1.43286 7.82275 2.91948 7.82275 4.50264C7.82275 6.33685 9.16874 8.05325 12.187 10.068L12.587 10.3351L12.9871 10.068C16.0054 8.05325 17.3513 6.33685 17.3513 4.50264C17.3513 2.91093 16.2949 1.43286 14.6289 1.43286C13.7021 1.43286 13.0236 1.82861 12.587 2.20618ZM12.5819 4.50952C12.5819 5.81149 15.487 2.79699 13.1678 4.40942C10.8487 2.79695 12.587 6.77863 12.587 5.47665C12.587 4.58247 11.7298 4.50952 12.5819 4.50952C13.4914 4.50952 11.9553 3.43079 11.9941 3.49078L12.5819 4.50952L13.1799 3.49107C13.2173 3.433 10.5146 3.49107 11.4255 3.49107C12.2775 3.49107 12.5819 3.61534 12.5819 4.50952Z" fill="#F44336"/>
</g>
<defs>
<clipPath id="clip0_2004_1259">
<rect width="23.2316" height="21.3445" fill="white" transform="translate(0.971191 0.140503)"/>
</clipPath>
</defs>
</svg>
