<svg width="26" height="25" viewBox="0 0 26 25" fill="none" xmlns="http://www.w3.org/2000/svg">
<mask id="mask0_2_9" style="mask-type:alpha" maskUnits="userSpaceOnUse" x="0" y="0" width="26" height="25">
<path fill-rule="evenodd" clip-rule="evenodd" d="M0.100246 0.333984H25.6909V24.7102H0.100246V0.333984Z" fill="white"/>
</mask>
<g mask="url(#mask0_2_9)">
<path fill-rule="evenodd" clip-rule="evenodd" d="M12.8974 24.7104C12.7424 24.7104 12.5886 24.6729 12.4486 24.5966C12.0574 24.3829 2.84112 19.3029 0.594872 12.3104C0.593622 12.3104 0.593622 12.3091 0.593622 12.3091C-0.816378 7.90661 0.753622 2.37411 5.82237 0.740359C8.20237 -0.0296409 10.7961 0.309109 12.8936 1.63286C14.9261 0.347859 17.6261 -0.00714086 19.9586 0.740359C25.0324 2.37661 26.6074 7.90786 25.1986 12.3091C23.0249 19.2216 13.7411 24.3779 13.3474 24.5941C13.2074 24.6716 13.0524 24.7104 12.8974 24.7104" fill="white"/>
</g>
<path fill-rule="evenodd" clip-rule="evenodd" d="M20.2924 9.86523C19.8086 9.86523 19.3986 9.49398 19.3586 9.00398C19.2761 7.97648 18.5886 7.10898 17.6099 6.79273C17.1161 6.63273 16.8461 6.10398 17.0049 5.61273C17.1661 5.12023 17.6899 4.85273 18.1849 5.00773C19.8886 5.55898 21.0824 7.06773 21.2286 8.85148C21.2699 9.36773 20.8861 9.82023 20.3699 9.86148C20.3436 9.86398 20.3186 9.86523 20.2924 9.86523" fill="white"/>
</svg>
