<svg width="21" height="21" viewBox="0 0 21 21" fill="none" xmlns="http://www.w3.org/2000/svg">
<path d="M20.5422 13.1636H13.9106C13.0099 13.1636 12.2771 13.9742 12.2771 14.9707C12.2771 15.6699 12.638 16.2777 13.1645 16.578L12.478 17.0567L9.60562 15.0543C8.8437 14.5229 7.83288 14.7768 7.35271 15.6195C6.87132 16.4643 7.09971 17.5793 7.8637 18.1119L11.6069 20.7214C12.1389 21.0924 12.8165 21.0927 13.3489 20.7214L19.0059 16.7777H20.5421C20.795 16.7777 20.9999 16.551 20.9999 16.2713V13.6699C21 13.3904 20.795 13.1636 20.5422 13.1636ZM20.0844 15.765H18.8737C18.7874 15.765 18.7027 15.792 18.6296 15.843L12.8607 19.8648C12.6314 20.0248 12.3247 20.0249 12.0952 19.8648L8.35193 17.2552C8.01617 17.0212 7.91565 16.5312 8.12726 16.1597C8.33851 15.7889 8.78285 15.6779 9.11757 15.9112L12.234 18.0838C12.3831 18.1878 12.573 18.1878 12.7221 18.0838L14.5953 16.7778H15.2042C15.457 16.7778 15.6619 16.5511 15.6619 16.2714C15.6619 15.9918 15.457 15.765 15.2042 15.765C14.4751 15.765 14.632 15.765 13.9107 15.765C13.5148 15.765 13.1927 15.4087 13.1927 14.9707C13.1927 14.5327 13.5147 14.1764 13.9107 14.1764H20.0844V15.765Z" fill="#FFA800"/>
<path d="M11.7667 7.71484C11.7651 7.71484 11.7633 7.71484 11.7617 7.71484C11.2799 7.71484 10.8292 7.93239 10.4999 8.32468C10.1701 7.93172 9.71914 7.71484 9.23817 7.71484C9.23653 7.71484 9.23476 7.71484 9.23311 7.71484C7.73442 7.71957 6.96067 9.70546 7.9815 10.9149C7.9862 10.9209 7.99102 10.9267 7.99597 10.9324L9.7253 12.9209C10.1479 13.4068 10.8503 13.4085 11.2745 12.9209L13.0038 10.9324C13.0087 10.9267 13.0136 10.9209 13.0183 10.9149C14.035 9.71018 13.274 7.71957 11.7667 7.71484ZM12.3427 10.2312C12.3391 10.2354 12.3356 10.2396 12.3322 10.2439L10.6148 12.2187C10.5521 12.2906 10.4478 12.2908 10.3851 12.2187L8.66767 10.2439C8.66419 10.2396 8.66071 10.2354 8.65711 10.2312C8.17309 9.67122 8.52686 8.7298 9.23567 8.72757C9.23646 8.72757 9.2372 8.72757 9.23805 8.72757C9.68239 8.72757 10.0421 9.12533 10.0421 9.61701C10.0421 9.89667 10.247 10.1234 10.4999 10.1234C10.7527 10.1234 10.9576 9.89667 10.9576 9.61701C10.9576 9.1254 11.3173 8.72757 11.7617 8.72757C11.7625 8.72757 11.7632 8.72757 11.764 8.72757C12.4716 8.7298 12.8281 9.66974 12.3427 10.2312Z" fill="#FFA800"/>
<path d="M8.72287 6.02912C8.72287 5.32989 8.36196 4.72207 7.8354 4.42175L8.52194 3.9431L11.3943 5.94553C12.1562 6.47677 13.167 6.2231 13.6472 5.38025C14.1286 4.53545 13.9002 3.4205 13.1362 2.8879L9.39299 0.278341C8.86099 -0.0926115 8.18343 -0.0929491 7.65101 0.278341L1.99405 4.22196H0.457772C0.204899 4.22196 0 4.44869 0 4.72835V7.32975C0 7.60941 0.204899 7.83614 0.457772 7.83614H7.0893C7.99007 7.83621 8.72287 7.02544 8.72287 6.02912ZM7.0893 6.82342H0.915543V5.23475H2.12626C2.21262 5.23475 2.29728 5.20774 2.37034 5.15676L8.13924 1.13496C8.36861 0.97494 8.67526 0.974873 8.90476 1.13503L12.648 3.74459C12.9838 3.97862 13.0843 4.46854 12.8727 4.8401C12.6616 5.21058 12.2173 5.32205 11.8824 5.08857L8.76602 2.91606C8.61691 2.81208 8.42696 2.81208 8.27785 2.91606L6.40465 4.22202H5.79582C5.54294 4.22202 5.33804 4.44875 5.33804 4.72842C5.33804 5.00809 5.54294 5.23482 5.79582 5.23482C6.52483 5.23482 6.36797 5.23482 7.0893 5.23482C7.48518 5.23482 7.80733 5.59112 7.80733 6.02912C7.80733 6.46698 7.48524 6.82342 7.0893 6.82342Z" fill="#FFA800"/>
</svg>
