<svg width="20" height="21" viewBox="0 0 20 21" fill="none" xmlns="http://www.w3.org/2000/svg">
<mask id="mask0_3335_3214" style="mask-type:alpha" maskUnits="userSpaceOnUse" x="0" y="0" width="20" height="21">
<path fill-rule="evenodd" clip-rule="evenodd" d="M0.833496 0.916748H19.625V20.6297H0.833496V0.916748Z" fill="white"/>
</mask>
<g mask="url(#mask0_3335_3214)">
<path fill-rule="evenodd" clip-rule="evenodd" d="M11.5738 14.0169C12.6775 14.0169 13.5758 14.9089 13.5758 16.0052V18.8249C13.5758 19.0604 13.7647 19.2493 14.0067 19.2548H15.7538C17.1307 19.2548 18.2499 18.1493 18.2499 16.7908V8.79377C18.2435 8.32627 18.0208 7.88627 17.6385 7.59385L11.5949 2.77402C10.7837 2.13144 9.64884 2.13144 8.83484 2.77586L2.8325 7.59202C2.43559 7.8936 2.21284 8.3336 2.20825 8.80935V16.7908C2.20825 18.1493 3.3275 19.2548 4.70434 19.2548H6.468C6.71642 19.2548 6.91809 19.0577 6.91809 18.8157C6.91809 18.7625 6.9245 18.7094 6.9355 18.6589V16.0052C6.9355 14.9153 7.82834 14.0243 8.92375 14.0169H11.5738ZM15.7538 20.6298H13.9902C12.98 20.6059 12.2008 19.813 12.2008 18.8249V16.0052C12.2008 15.6669 11.9194 15.3919 11.5738 15.3919H8.92834C8.59009 15.3938 8.3105 15.6697 8.3105 16.0052V18.8157C8.3105 18.8844 8.30134 18.9504 8.28209 19.0128C8.18309 19.9203 7.40759 20.6298 6.468 20.6298H4.70434C2.56942 20.6298 0.833252 18.9074 0.833252 16.7908V8.80294C0.842419 7.89177 1.26225 7.05761 1.98734 6.50852L7.97775 1.70061C9.29684 0.655605 11.1348 0.655605 12.4511 1.69877L18.4846 6.51127C19.1932 7.05119 19.613 7.88352 19.6249 8.78369V16.7908C19.6249 18.9074 17.8888 20.6298 15.7538 20.6298Z" fill="white"/>
</g>
</svg>
