<svg width="19" height="18" viewBox="0 0 19 18" fill="none" xmlns="http://www.w3.org/2000/svg">
<path d="M7.31827 15.5181V13.3164C7.31827 12.7544 7.80975 12.2988 8.41601 12.2988L10.6322 12.2988C10.9233 12.2988 11.2026 12.406 11.4084 12.5969C11.6143 12.7877 11.7299 13.0465 11.7299 13.3164V15.5181C11.7281 15.7518 11.8269 15.9765 12.0045 16.1423C12.1821 16.3081 12.4237 16.4014 12.6758 16.4014L14.1878 16.4014C14.8939 16.4031 15.5718 16.1442 16.0718 15.6819C16.5717 15.2196 16.8527 14.5919 16.8527 13.9373V7.66498C16.8527 7.13618 16.5999 6.63458 16.1623 6.29532L11.0188 2.48714C10.1241 1.81944 8.84216 1.841 7.97415 2.53835L2.94803 6.29532C2.4898 6.62458 2.21593 7.12767 2.20239 7.66498V13.9309C2.20239 15.2953 3.39553 16.4014 4.86734 16.4014H6.3448C6.86831 16.4014 7.29377 16.0098 7.29756 15.5245L7.31827 15.5181Z" fill="white"/>
</svg>
