<svg width="27" height="25" viewBox="0 0 27 25" fill="none" xmlns="http://www.w3.org/2000/svg">
<mask id="mask0_2_36" style="mask-type:alpha" maskUnits="userSpaceOnUse" x="0" y="0" width="27" height="25">
<path fill-rule="evenodd" clip-rule="evenodd" d="M0.877542 0.333984H26.4682V24.7102H0.877542V0.333984Z" fill="white"/>
</mask>
<g mask="url(#mask0_2_36)">
<path fill-rule="evenodd" clip-rule="evenodd" d="M13.6747 24.7104C13.5197 24.7104 13.3659 24.6729 13.2259 24.5966C12.8347 24.3829 3.61842 19.3029 1.37217 12.3104C1.37092 12.3104 1.37092 12.3091 1.37092 12.3091C-0.0390831 7.90661 1.53092 2.37411 6.59967 0.740359C8.97967 -0.0296409 11.5734 0.309109 13.6709 1.63286C15.7034 0.347859 18.4034 -0.00714088 20.7359 0.740359C25.8097 2.37661 27.3847 7.90786 25.9759 12.3091C23.8022 19.2216 14.5184 24.3779 14.1247 24.5941C13.9847 24.6716 13.8297 24.7104 13.6747 24.7104" fill="white"/>
</g>
<path fill-rule="evenodd" clip-rule="evenodd" d="M21.0697 9.86523C20.5859 9.86523 20.1759 9.49398 20.1359 9.00398C20.0534 7.97648 19.3659 7.10898 18.3872 6.79273C17.8934 6.63273 17.6234 6.10398 17.7822 5.61273C17.9434 5.12023 18.4672 4.85273 18.9622 5.00773C20.6659 5.55898 21.8597 7.06773 22.0059 8.85148C22.0472 9.36773 21.6634 9.82023 21.1472 9.86148C21.1209 9.86398 21.0959 9.86523 21.0697 9.86523" fill="white"/>
</svg>
