<svg width="28" height="24" viewBox="0 0 28 24" fill="none" xmlns="http://www.w3.org/2000/svg">
<path d="M13.6454 3.88906L13.9993 4.24299L14.3529 3.88867L15.4468 2.79238C15.4469 2.79229 15.447 2.7922 15.447 2.79211C18.0557 0.183792 22.2787 0.183877 24.8872 2.79238C27.4904 5.39553 27.4874 9.60423 24.8888 12.2179C24.8886 12.2181 24.8884 12.2183 24.8882 12.2185L14.354 22.7465L14.3539 22.7466C14.1586 22.9419 13.842 22.9419 13.6468 22.7466L3.11961 12.2195C0.516118 9.61598 0.516118 5.39488 3.11961 2.79139C5.72311 0.187892 9.94421 0.187892 12.5477 2.79139L13.6454 3.88906Z" stroke="white"/>
</svg>
