<svg width="27" height="26" viewBox="0 0 27 26" fill="none" xmlns="http://www.w3.org/2000/svg">
<mask id="mask0_3085_7847" style="mask-type:alpha" maskUnits="userSpaceOnUse" x="0" y="0" width="27" height="26">
<path fill-rule="evenodd" clip-rule="evenodd" d="M0.5 0.75H26.0906V25.1263H0.5V0.75Z" fill="white"/>
</mask>
<g mask="url(#mask0_3085_7847)">
<path fill-rule="evenodd" clip-rule="evenodd" d="M2.7797 12.1539C4.5322 17.6064 11.456 22.0151 13.296 23.1064C15.1422 22.0039 22.116 17.5464 23.8122 12.1589C24.926 8.6764 23.8922 4.26515 19.7847 2.9414C17.7947 2.30265 15.4735 2.6914 13.871 3.9314C13.536 4.1889 13.071 4.1939 12.7335 3.9389C11.036 2.66265 8.81845 2.2889 6.7972 2.9414C2.69595 4.2639 1.66595 8.67515 2.7797 12.1539M13.2972 25.1264C13.1422 25.1264 12.9885 25.0889 12.8485 25.0126C12.4572 24.7989 3.24095 19.7189 0.994702 12.7264C0.993452 12.7264 0.993452 12.7251 0.993452 12.7251C-0.416548 8.32265 1.15345 2.79015 6.2222 1.1564C8.6022 0.386398 11.196 0.725148 13.2935 2.0489C15.326 0.763898 18.026 0.408898 20.3585 1.1564C25.4322 2.79265 27.0072 8.3239 25.5985 12.7251C23.4247 19.6376 14.141 24.7939 13.7472 25.0101C13.6072 25.0876 13.4522 25.1264 13.2972 25.1264" fill="white"/>
</g>
<path fill-rule="evenodd" clip-rule="evenodd" d="M20.6921 10.2804C20.2084 10.2804 19.7984 9.90911 19.7584 9.41911C19.6759 8.39161 18.9884 7.52411 18.0096 7.20786C17.5159 7.04786 17.2459 6.51911 17.4046 6.02786C17.5659 5.53536 18.0896 5.26786 18.5846 5.42286C20.2884 5.97411 21.4821 7.48286 21.6284 9.26661C21.6696 9.78286 21.2859 10.2354 20.7696 10.2766C20.7434 10.2791 20.7184 10.2804 20.6921 10.2804Z" fill="white"/>
</svg>
