<svg width="1098" height="255" viewBox="0 0 1098 255" fill="none" xmlns="http://www.w3.org/2000/svg">
<circle r="40" transform="matrix(1 0 0 -1 40 80)" fill="url(#paint0_linear_209_1066)"/>
<circle r="40" transform="matrix(1 0 0 -1 659 40)" fill="url(#paint1_linear_209_1066)"/>
<rect width="100" height="50" rx="25" transform="matrix(0.906308 -0.422618 -0.422618 -0.906308 227.131 230.577)" fill="url(#paint2_linear_209_1066)"/>
<rect x="872.631" y="200.577" width="100" height="50" rx="25" transform="rotate(-155 872.631 200.577)" fill="url(#paint3_linear_209_1066)"/>
<rect width="80" height="80" rx="16" transform="matrix(-0.906308 0.422618 0.422618 0.906308 509.505 23)" fill="url(#paint4_linear_209_1066)"/>
<rect x="1024.81" y="148" width="80" height="80" rx="16" transform="rotate(25 1024.81 148)" fill="url(#paint5_linear_209_1066)"/>
<defs>
<linearGradient id="paint0_linear_209_1066" x1="40" y1="0" x2="40" y2="80" gradientUnits="userSpaceOnUse">
<stop stop-color="#FFA800"/>
<stop offset="0.52662" stop-color="#FFA800" stop-opacity="0.32"/>
<stop offset="1" stop-color="#FFA800" stop-opacity="0"/>
</linearGradient>
<linearGradient id="paint1_linear_209_1066" x1="40" y1="0" x2="40" y2="80" gradientUnits="userSpaceOnUse">
<stop stop-color="#D9D9D9"/>
<stop offset="0.52662" stop-color="#D9D9D9" stop-opacity="0.32"/>
<stop offset="1" stop-color="#D9D9D9" stop-opacity="0"/>
</linearGradient>
<linearGradient id="paint2_linear_209_1066" x1="50" y1="0" x2="50" y2="50" gradientUnits="userSpaceOnUse">
<stop stop-color="#D9D9D9"/>
<stop offset="0.521412" stop-color="#D9D9D9" stop-opacity="0.32"/>
<stop offset="1" stop-color="#D9D9D9" stop-opacity="0"/>
</linearGradient>
<linearGradient id="paint3_linear_209_1066" x1="922.631" y1="200.577" x2="922.631" y2="250.577" gradientUnits="userSpaceOnUse">
<stop stop-color="#FFA800"/>
<stop offset="0.521412" stop-color="#FFA800" stop-opacity="0.32"/>
<stop offset="1" stop-color="#FFA800" stop-opacity="0"/>
</linearGradient>
<linearGradient id="paint4_linear_209_1066" x1="40" y1="0" x2="40" y2="80" gradientUnits="userSpaceOnUse">
<stop stop-color="#FFA800" stop-opacity="0"/>
<stop offset="0.542245" stop-color="#FFA800" stop-opacity="0.32"/>
<stop offset="1" stop-color="#FFA800"/>
</linearGradient>
<linearGradient id="paint5_linear_209_1066" x1="1064.81" y1="148" x2="1064.81" y2="228" gradientUnits="userSpaceOnUse">
<stop stop-color="#D9D9D9" stop-opacity="0"/>
<stop offset="0.542245" stop-color="#D9D9D9" stop-opacity="0.32"/>
<stop offset="1" stop-color="#D9D9D9"/>
</linearGradient>
</defs>
</svg>
