<svg width="24" height="16" viewBox="0 0 24 16" fill="none" xmlns="http://www.w3.org/2000/svg">
<path d="M21.3524 0.410156H5.94686C4.48693 0.410156 3.29921 1.59788 3.29921 3.0578V6.88393H0.758111C0.339423 6.88393 0 7.2234 0 7.64209C0 8.06078 0.339423 8.4002 0.758111 8.4002H3.29921V10.4358H2.03138C1.61269 10.4358 1.27327 10.7752 1.27327 11.1939C1.27327 11.6126 1.61269 11.952 2.03138 11.952H3.29916V12.9423C3.29916 14.4022 4.48688 15.59 5.94681 15.59H21.3524C22.8123 15.59 24 14.4022 24 12.9423V3.05785C24 1.59792 22.8123 0.410156 21.3524 0.410156ZM5.94686 1.92642H21.3524C21.6213 1.92642 21.8684 2.02088 22.0627 2.1781L14.7046 7.5775C14.0835 8.03331 13.2158 8.03331 12.5946 7.5775L5.23651 2.1781C5.43081 2.02088 5.67798 1.92642 5.94686 1.92642ZM22.4838 12.9423C22.4838 13.5662 21.9763 14.0737 21.3524 14.0737H5.94686C5.32299 14.0737 4.81543 13.5662 4.81543 12.9423V11.952H7.67022C8.08891 11.952 8.42833 11.6126 8.42833 11.1939C8.42833 10.7752 8.08891 10.4358 7.67022 10.4358H4.81543V3.74977L11.6976 8.79991C12.2723 9.22169 12.9609 9.43244 13.6496 9.43244C14.3382 9.43244 15.027 9.22159 15.6016 8.79991L22.4838 3.74977V12.9423H22.4838Z" fill="white"/>
</svg>
