<svg width="20" height="21" viewBox="0 0 20 21" fill="none" xmlns="http://www.w3.org/2000/svg">
<mask id="mask0_3335_3348" style="mask-type:alpha" maskUnits="userSpaceOnUse" x="0" y="6" width="20" height="15">
<path fill-rule="evenodd" clip-rule="evenodd" d="M0.000488281 6.79492H20.0001V20.5389H0.000488281V6.79492Z" fill="white"/>
</mask>
<g mask="url(#mask0_3335_3348)">
<path fill-rule="evenodd" clip-rule="evenodd" d="M15.5655 20.5389H4.43549C1.99049 20.5389 0.000488281 18.5499 0.000488281 16.1039V11.2289C0.000488281 8.78392 1.99049 6.79492 4.43549 6.79492H5.36849C5.78249 6.79492 6.11849 7.13092 6.11849 7.54492C6.11849 7.95892 5.78249 8.29492 5.36849 8.29492H4.43549C2.81649 8.29492 1.50049 9.61092 1.50049 11.2289V16.1039C1.50049 17.7229 2.81649 19.0389 4.43549 19.0389H15.5655C17.1835 19.0389 18.5005 17.7229 18.5005 16.1039V11.2199C18.5005 9.60692 17.1885 8.29492 15.5765 8.29492H14.6335C14.2195 8.29492 13.8835 7.95892 13.8835 7.54492C13.8835 7.13092 14.2195 6.79492 14.6335 6.79492H15.5765C18.0155 6.79492 20.0005 8.77992 20.0005 11.2199V16.1039C20.0005 18.5499 18.0105 20.5389 15.5655 20.5389Z" fill="white"/>
</g>
<mask id="mask1_3335_3348" style="mask-type:alpha" maskUnits="userSpaceOnUse" x="9" y="0" width="2" height="14">
<path fill-rule="evenodd" clip-rule="evenodd" d="M9.25 0H10.75V13.5409H9.25V0Z" fill="white"/>
</mask>
<g mask="url(#mask1_3335_3348)">
<path fill-rule="evenodd" clip-rule="evenodd" d="M10 13.541C9.586 13.541 9.25 13.205 9.25 12.791V0.75C9.25 0.336 9.586 0 10 0C10.414 0 10.75 0.336 10.75 0.75V12.791C10.75 13.205 10.414 13.541 10 13.541Z" fill="white"/>
</g>
<path fill-rule="evenodd" clip-rule="evenodd" d="M7.0852 4.42902C6.8942 4.42902 6.7022 4.35602 6.5562 4.21002C6.2632 3.91802 6.2612 3.44402 6.5542 3.15002L9.4692 0.222016C9.7502 -0.0609844 10.2502 -0.0609844 10.5312 0.222016L13.4472 3.15002C13.7392 3.44402 13.7382 3.91802 13.4452 4.21002C13.1512 4.50202 12.6772 4.50202 12.3852 4.20802L10.0002 1.81402L7.6162 4.20802C7.4702 4.35602 7.2772 4.42902 7.0852 4.42902Z" fill="white"/>
</svg>
