<svg width="18" height="22" viewBox="0 0 18 22" fill="none" xmlns="http://www.w3.org/2000/svg">
<path d="M9.00007 9.67075C11.6664 9.67075 13.8355 7.50165 13.8355 4.83538C13.8355 2.1691 11.6664 0 9.00007 0C6.3338 0 4.16462 2.1691 4.16462 4.83538C4.16462 7.50165 6.3338 9.67075 9.00007 9.67075ZM9.00007 2.31173C10.3917 2.31173 11.5238 3.44379 11.5238 4.83538C11.5238 6.22696 10.3917 7.35902 9.00007 7.35902C7.60849 7.35902 6.47635 6.22696 6.47635 4.83538C6.47635 3.44379 7.60849 2.31173 9.00007 2.31173Z" fill="white"/>
<path d="M9.00008 11.9825C4.11376 11.9825 0.138428 15.9578 0.138428 20.8441C0.138428 21.4825 0.655948 22 1.29429 22H16.7059C17.3442 22 17.8617 21.4825 17.8617 20.8441C17.8617 15.9578 13.8864 11.9825 9.00008 11.9825ZM2.55226 19.6883C3.09984 16.6261 5.78276 14.2942 9.00008 14.2942C12.2174 14.2942 14.9003 16.6261 15.4479 19.6883H2.55226Z" fill="white"/>
</svg>
