<svg width="20" height="21" viewBox="0 0 20 21" fill="none" xmlns="http://www.w3.org/2000/svg">
<path fill-rule="evenodd" clip-rule="evenodd" d="M7.23391 5.77833C7.20457 5.77833 7.17524 5.782 7.14591 5.78933C4.42341 6.45941 2.20874 9.40925 2.20874 12.3646C2.20874 16.0826 5.23374 19.1076 8.95266 19.1076C12.3049 19.1076 15.1062 16.7197 15.6141 13.4288C15.6177 13.4013 15.6306 13.3216 15.5554 13.2327C15.4839 13.1492 15.3702 13.0997 15.2511 13.0997C13.9577 13.0997 12.9704 13.1291 12.1995 13.1511C10.3332 13.207 9.56132 13.2281 8.79866 12.6625C7.64916 11.8109 7.55199 10.3479 7.55199 6.04508C7.55199 5.96808 7.51899 5.90392 7.45299 5.85258C7.39157 5.804 7.31366 5.77833 7.23391 5.77833ZM8.95266 20.4826C4.47566 20.4826 0.83374 16.8407 0.83374 12.3646C0.83374 8.81525 3.51774 5.26591 6.81682 4.45375C7.33199 4.32816 7.88566 4.4455 8.30182 4.77C8.69874 5.08166 8.92699 5.54641 8.92699 6.04508C8.92699 10.0647 9.06266 11.1463 9.61724 11.5579C9.98116 11.8265 10.4798 11.8237 12.1601 11.777C12.9411 11.7541 13.9412 11.7247 15.2511 11.7247C15.7736 11.7247 16.2658 11.9484 16.5995 12.338C16.9093 12.7001 17.045 13.1731 16.9735 13.6387C16.3612 17.6033 12.9878 20.4826 8.95266 20.4826Z" fill="white"/>
<mask id="mask0_3335_3193" style="mask-type:alpha" maskUnits="userSpaceOnUse" x="10" y="0" width="10" height="11">
<path fill-rule="evenodd" clip-rule="evenodd" d="M10.4346 0.917236H19.9853V10.3491H10.4346V0.917236Z" fill="white"/>
</mask>
<g mask="url(#mask0_3335_3193)">
<path fill-rule="evenodd" clip-rule="evenodd" d="M11.8433 2.29347C11.7424 4.60255 11.8918 7.58538 11.9615 8.76697C11.9652 8.83755 12.0165 8.88888 12.0862 8.89255C13.0285 8.94663 16.2753 9.09697 18.6101 8.75322C18.6156 7.46622 17.7347 5.72088 16.4083 4.39538C15.0479 3.03688 13.4383 2.29347 11.8634 2.29347H11.8433ZM14.8719 10.3491C13.6711 10.3491 12.6142 10.3005 12.0064 10.2657C11.2419 10.2208 10.6333 9.61122 10.5893 8.84672C10.5178 7.63488 10.3628 4.5558 10.4728 2.1743C10.5031 1.48222 11.0623 0.9313 11.7461 0.919383C13.705 0.86255 15.7263 1.77188 17.3799 3.4228C18.9914 5.03338 20.0144 7.14997 19.9851 8.81555C19.9741 9.46547 19.502 10.0081 18.864 10.1044C17.6192 10.2923 16.1617 10.3491 14.8719 10.3491Z" fill="white"/>
</g>
</svg>
