<svg width="18" height="21" viewBox="0 0 18 21" fill="none" xmlns="http://www.w3.org/2000/svg">
<path d="M17.3613 17.3991C17.5571 17.2044 17.558 16.8878 17.3633 16.692L14.1901 13.5012C13.9954 13.3054 13.6788 13.3045 13.483 13.4992C13.2872 13.694 13.2863 14.0106 13.481 14.2064L16.3016 17.0426L13.4654 19.8632C13.2696 20.0579 13.2687 20.3745 13.4634 20.5703C13.6582 20.7661 13.9747 20.767 14.1705 20.5722L17.3613 17.3991ZM16.0444 17.0419L16.043 17.5419L16.0444 17.0419ZM1.08637 2.16084L1.58636 2.15688L1.08637 2.16084ZM1.57716 0.996178C1.57497 0.720044 1.34934 0.497968 1.07321 0.500157C0.797076 0.502346 0.575 0.727971 0.577189 1.0041L1.57716 0.996178ZM17.0101 16.5446L16.0458 16.5419L16.043 17.5419L17.0074 17.5445L17.0101 16.5446ZM1.58636 2.15688L1.57716 0.996178L0.577189 1.0041L0.586389 2.1648L1.58636 2.15688ZM16.0458 16.5419C8.09817 16.5199 1.64936 10.1043 1.58636 2.15688L0.586389 2.1648C0.653733 10.6603 7.54729 17.5184 16.043 17.5419L16.0458 16.5419Z" fill="#686870"/>
</svg>
