<svg width="22" height="24" viewBox="0 0 22 24" fill="none" xmlns="http://www.w3.org/2000/svg">
<path d="M4.73307 11.998C4.6393 11.6822 4.30866 11.5045 3.99776 11.5983C3.68192 11.692 3.50426 12.0227 3.59803 12.3336C3.67699 12.5902 3.90893 12.758 4.16555 12.758C4.21983 12.758 4.27905 12.7481 4.33333 12.7333C4.64917 12.6395 4.82683 12.3089 4.73307 11.998Z" fill="white"/>
<path d="M3.46485 18.8771C3.18849 18.6994 2.8233 18.7784 2.64564 19.0547C2.46798 19.3311 2.54694 19.6963 2.8233 19.874C2.922 19.9381 3.03551 19.9677 3.14408 19.9677C3.33654 19.9677 3.529 19.874 3.64251 19.6963C3.82017 19.4199 3.74121 19.0547 3.46485 18.8771Z" fill="white"/>
<path d="M7.02276 11.9984C7.02276 11.6727 6.75627 11.4062 6.43057 11.4062C6.10486 11.4062 5.83838 11.6727 5.83838 11.9984C5.83838 12.3241 6.10486 12.5906 6.43057 12.5906C6.75627 12.5906 7.02276 12.3241 7.02276 11.9984Z" fill="white"/>
<path d="M1.34764 16.0347C1.63881 16.0347 1.89049 15.8225 1.93491 15.5264C1.97932 15.2007 1.75725 14.9046 1.43154 14.8553C1.10583 14.8108 0.809733 15.0329 0.765318 15.3586C0.720903 15.6843 0.947912 15.9804 1.26869 16.0248C1.29336 16.0347 1.31803 16.0347 1.34764 16.0347Z" fill="white"/>
<path d="M2.7245 13.7792C2.93671 13.5325 2.91203 13.1574 2.66035 12.9452C2.4136 12.733 2.03854 12.7577 1.82634 13.0094C1.61413 13.2561 1.63881 13.6312 1.89049 13.8434C2.00399 13.9421 2.13724 13.9865 2.27542 13.9865C2.44321 13.9865 2.60606 13.9125 2.7245 13.7792Z" fill="white"/>
<path d="M20.3177 6.91511C20.4016 6.91511 20.4855 6.89537 20.5644 6.86082C20.8605 6.72264 20.9889 6.37226 20.8556 6.07616C20.7224 5.78006 20.3671 5.65175 20.071 5.785C19.7749 5.91824 19.6416 6.27356 19.7798 6.56966C19.8785 6.7868 20.0956 6.91511 20.3177 6.91511Z" fill="white"/>
<path d="M9.3077 11.9984C9.3077 11.6727 9.04121 11.4062 8.7155 11.4062C8.38978 11.4062 8.12329 11.6727 8.12329 11.9984C8.12329 12.3241 8.38978 12.5906 8.7155 12.5906C9.04121 12.5906 9.3077 12.3241 9.3077 11.9984Z" fill="white"/>
<path d="M1.42155 17.1358C1.12545 17.2739 0.992207 17.6243 1.13039 17.9204C1.22909 18.1376 1.44622 18.2659 1.6683 18.2659C1.75219 18.2659 1.83609 18.2461 1.91505 18.2116C2.21115 18.0734 2.34439 17.723 2.20621 17.4269C2.07297 17.1308 1.71765 16.9976 1.42155 17.1358Z" fill="white"/>
<path d="M17.6626 11.2624C17.3467 11.3561 17.1691 11.6868 17.2628 12.0026C17.3418 12.2592 17.5737 12.4221 17.8303 12.4221C17.8846 12.4221 17.9438 12.4122 18.0031 12.3974C18.3189 12.3036 18.4916 11.973 18.3979 11.6572C18.3041 11.3463 17.9735 11.1686 17.6626 11.2624Z" fill="white"/>
<path d="M20.1055 10.1526C19.8587 9.94036 19.4837 9.96997 19.2715 10.2167C19.0593 10.4635 19.0889 10.8385 19.3356 11.0507C19.4491 11.1445 19.5873 11.1938 19.7205 11.1938C19.8883 11.1938 20.0512 11.1248 20.1696 10.9866C20.3818 10.7398 20.3522 10.3648 20.1055 10.1526Z" fill="white"/>
<path d="M11.5926 11.9984C11.5926 11.6727 11.3261 11.4062 11.0004 11.4062C10.6747 11.4062 10.4082 11.6727 10.4082 11.9984C10.4082 12.3241 10.6747 12.5906 11.0004 12.5906C11.3261 12.5906 11.5926 12.3241 11.5926 11.9984Z" fill="white"/>
<path d="M19.3405 4.94141C19.5182 4.66505 19.4392 4.29987 19.1629 4.12221C18.8865 3.94455 18.5213 4.02351 18.3436 4.29986C18.166 4.57622 18.2449 4.94141 18.5213 5.11907C18.62 5.18322 18.7335 5.21283 18.8421 5.21283C19.0345 5.21283 19.227 5.11907 19.3405 4.94141Z" fill="white"/>
<path d="M15.5653 11.4062C15.2396 11.4062 14.9731 11.6727 14.9731 11.9984C14.9731 12.3241 15.2396 12.5906 15.5653 12.5906C15.891 12.5906 16.1575 12.3241 16.1575 11.9984C16.1575 11.6727 15.891 11.4062 15.5653 11.4062Z" fill="white"/>
<path d="M13.8726 11.9984C13.8726 11.6727 13.6061 11.4062 13.2804 11.4062C12.9547 11.4062 12.6882 11.6727 12.6882 11.9984C12.6882 12.3241 12.9547 12.5906 13.2804 12.5906C13.6061 12.5906 13.8726 12.3241 13.8726 11.9984Z" fill="white"/>
<path d="M20.7272 7.96161C20.4015 7.91719 20.1054 8.1442 20.061 8.46497C20.0166 8.79068 20.2436 9.08678 20.5643 9.1312C20.594 9.13613 20.6186 9.13613 20.6482 9.13613C20.9394 9.13613 21.1911 8.92393 21.2355 8.62289C21.275 8.30706 21.0529 8.00602 20.7272 7.96161Z" fill="white"/>
<path d="M16.6806 3.39649H7.64957L10.0332 1.0129C10.2651 0.780959 10.2651 0.405901 10.0332 0.173958C9.80121 -0.0579859 9.42616 -0.0579859 9.19421 0.173958L5.79896 3.56922C5.56701 3.80116 5.56701 4.17622 5.79896 4.40816L9.19421 7.80342C9.30772 7.91693 9.4607 7.97615 9.61369 7.97615C9.76667 7.97615 9.91472 7.91693 10.0332 7.80342C10.2651 7.57148 10.2651 7.19642 10.0332 6.96448L7.64957 4.58089H16.6756C17.0013 4.58089 17.2678 4.3144 17.2678 3.98869C17.2678 3.66298 17.0063 3.39649 16.6806 3.39649Z" fill="white"/>
<path d="M12.1108 16.1974C11.8789 15.9655 11.5038 15.9655 11.2719 16.1974C11.04 16.4293 11.04 16.8044 11.2719 17.0363L13.6555 19.4199H5.31046C4.98475 19.4199 4.71826 19.6864 4.71826 20.0121C4.71826 20.3378 4.98475 20.6043 5.31046 20.6043H13.6555L11.2719 22.9879C11.04 23.2199 11.04 23.5949 11.2719 23.8269C11.3854 23.9404 11.5384 23.9996 11.6914 23.9996C11.8444 23.9996 11.9924 23.9404 12.1108 23.8269L15.5061 20.4316C15.7381 20.1997 15.7381 19.8246 15.5061 19.5927L12.1108 16.1974Z" fill="white"/>
</svg>
