<svg width="21" height="25" viewBox="0 0 21 25" fill="none" xmlns="http://www.w3.org/2000/svg">
<mask id="mask0_2_43" style="mask-type:alpha" maskUnits="userSpaceOnUse" x="0" y="0" width="21" height="25">
<path fill-rule="evenodd" clip-rule="evenodd" d="M0.918182 0.333984H20.7968V24.6551H0.918182V0.333984Z" fill="white"/>
</mask>
<g mask="url(#mask0_2_43)">
<path fill-rule="evenodd" clip-rule="evenodd" d="M7.15028 2.08398C4.17645 2.08398 2.66795 3.22965 2.66795 5.49182V22.6698C2.66795 22.7795 2.73095 22.839 2.78345 22.8693C2.83595 22.902 2.91878 22.9253 3.01445 22.8717L10.4601 18.695C10.7261 18.5468 11.0516 18.5457 11.3188 18.6962L18.7003 22.8658C18.7971 22.9218 18.8799 22.8962 18.9324 22.8647C18.9849 22.8332 19.0468 22.7737 19.0468 22.664V5.70532C19.0468 4.81048 19.0468 2.08398 14.5691 2.08398H7.15028ZM2.90012 24.6555C2.55595 24.6555 2.21178 24.5633 1.89912 24.379C1.28428 24.0208 0.91795 23.3803 0.91795 22.6698V5.49182C0.91795 2.21348 3.18945 0.333984 7.15028 0.333984H14.5691C18.5264 0.333984 20.7968 2.29282 20.7968 5.70532V22.664C20.7968 23.3757 20.4304 24.0162 19.8144 24.3743C19.2008 24.7337 18.4611 24.7407 17.8404 24.3907L10.8871 20.4625L3.86962 24.3988C3.56628 24.5692 3.23378 24.6555 2.90012 24.6555V24.6555Z" fill="white"/>
</g>
<path fill-rule="evenodd" clip-rule="evenodd" d="M15.081 9.9339H6.54338C6.06038 9.9339 5.66838 9.5419 5.66838 9.0589C5.66838 8.5759 6.06038 8.1839 6.54338 8.1839H15.081C15.564 8.1839 15.9561 8.5759 15.9561 9.0589C15.9561 9.5419 15.564 9.9339 15.081 9.9339" fill="white"/>
</svg>
