<svg width="16" height="17" viewBox="0 0 16 17" fill="none" xmlns="http://www.w3.org/2000/svg">
<path fill-rule="evenodd" clip-rule="evenodd" d="M14.6051 5.71814L14.1382 4.90807C13.7433 4.22263 12.8681 3.98617 12.1817 4.37946V4.37946C11.855 4.57194 11.4651 4.62654 11.0981 4.53124C10.7311 4.43594 10.417 4.19856 10.2252 3.87146C10.1018 3.66354 10.0355 3.42672 10.033 3.18496V3.18496C10.0441 2.79734 9.89787 2.42173 9.62758 2.14368C9.35729 1.86563 8.98596 1.70882 8.59819 1.70898H7.65769C7.27779 1.70898 6.91355 1.86036 6.64556 2.12964C6.37758 2.39891 6.22794 2.76387 6.22977 3.14377V3.14377C6.21851 3.92812 5.57942 4.55804 4.79499 4.55795C4.55322 4.55544 4.3164 4.48914 4.10849 4.36573V4.36573C3.42211 3.97244 2.5469 4.2089 2.15197 4.89434L1.65082 5.71814C1.25637 6.40272 1.48961 7.27738 2.17256 7.67466V7.67466C2.61649 7.93096 2.88996 8.40462 2.88996 8.91722C2.88996 9.42982 2.61649 9.90349 2.17256 10.1598V10.1598C1.49048 10.5544 1.25698 11.4269 1.65082 12.1094V12.1094L2.12451 12.9264C2.30955 13.2603 2.62001 13.5066 2.98721 13.611C3.3544 13.7154 3.74804 13.6691 4.08103 13.4824V13.4824C4.40837 13.2914 4.79845 13.2391 5.16457 13.3371C5.53068 13.435 5.84249 13.6752 6.03068 14.0042C6.15408 14.2121 6.22039 14.4489 6.2229 14.6907V14.6907C6.2229 15.4831 6.86528 16.1255 7.65769 16.1255H8.59819C9.38793 16.1255 10.0292 15.4873 10.033 14.6975V14.6975C10.0311 14.3165 10.1817 13.9504 10.4512 13.681C10.7207 13.4115 11.0867 13.2609 11.4678 13.2628C11.7089 13.2692 11.9448 13.3353 12.1543 13.455V13.455C12.8388 13.8494 13.7135 13.6162 14.1108 12.9332V12.9332L14.6051 12.1094C14.7964 11.781 14.8489 11.3899 14.751 11.0227C14.653 10.6555 14.4128 10.3424 14.0833 10.1529V10.1529C13.7539 9.9634 13.5136 9.65036 13.4157 9.28313C13.3177 8.91591 13.3703 8.52479 13.5616 8.1964C13.686 7.97918 13.8661 7.79907 14.0833 7.67466V7.67466C14.7622 7.2776 14.9949 6.40805 14.6051 5.725V5.725V5.71814Z" stroke="white" stroke-width="1.5" stroke-linecap="round" stroke-linejoin="round"/>
<ellipse cx="8.13141" cy="8.91755" rx="1.97712" ry="1.97712" stroke="white" stroke-width="1.5" stroke-linecap="round" stroke-linejoin="round"/>
</svg>
