<svg width="22" height="24" viewBox="0 0 22 24" fill="none" xmlns="http://www.w3.org/2000/svg">
<path d="M20.1667 9.50037C20.7789 9.50037 21.2809 9.97177 21.3295 10.5713L21.3334 10.667V20.167C21.3334 22.2349 19.6961 23.9203 17.6471 23.9976L17.5001 24.0004H4.50008C2.43222 24.0004 0.74679 22.363 0.669516 20.3141L0.666748 20.167V10.667C0.666748 10.0227 1.18908 9.50037 1.83341 9.50037C2.44553 9.50037 2.94754 9.97177 2.99621 10.5713L3.00008 10.667V20.167C3.00008 20.9609 3.61686 21.6108 4.39738 21.6636L4.50008 21.667H17.5001C18.294 21.667 18.9438 21.0503 18.9966 20.2697L19.0001 20.167V10.667C19.0001 10.0227 19.5224 9.50037 20.1667 9.50037ZM10.666 0.178954L10.7653 0.169019L10.8818 0.167969L10.9848 0.176641L11.1034 0.19815L11.1493 0.210317C11.2796 0.246263 11.4047 0.305566 11.5183 0.387878L11.598 0.451226L11.66 0.508744L16.8454 5.69419C17.301 6.14981 17.301 6.8885 16.8454 7.34411C16.4166 7.77292 15.737 7.79814 15.2787 7.41978L15.1955 7.34411L12.0001 4.14837V17.0004C12.0001 17.6125 11.5287 18.1145 10.9291 18.1632L10.8334 18.167C10.2213 18.167 9.71929 17.6956 9.67062 17.0961L9.66675 17.0004V4.15103L6.47452 7.34411C6.0457 7.77292 5.36614 7.79814 4.90782 7.41978L4.8246 7.34411C4.39579 6.9153 4.37056 6.23573 4.74893 5.77742L4.8246 5.69419L9.99262 0.524891C10.0299 0.486177 10.0698 0.45003 10.112 0.41674L10.1876 0.362896C10.2127 0.345195 10.239 0.329117 10.266 0.314077L10.2785 0.307959C10.3966 0.243182 10.5274 0.198877 10.666 0.178954Z" fill="white"/>
</svg>
