<svg width="19" height="19" viewBox="0 0 19 19" fill="none" xmlns="http://www.w3.org/2000/svg">
<path fill-rule="evenodd" clip-rule="evenodd" d="M3.80021 5.65186L4.35296 12.2262C4.3933 12.7322 4.80671 13.1117 5.3118 13.1117H5.31546H15.3172H15.319C15.7966 13.1117 16.2045 12.756 16.2724 12.2839L17.1432 6.27153C17.1634 6.12853 17.1276 5.98553 17.0405 5.87003C16.9544 5.75361 16.8279 5.67845 16.6849 5.65828C16.4933 5.66561 8.54305 5.65461 3.80021 5.65186ZM5.30996 14.4867C4.10271 14.4867 3.08063 13.5444 2.98255 12.3389L2.14288 2.35278L0.761463 2.11445C0.386546 2.04845 0.136296 1.6937 0.200463 1.31878C0.266463 0.943863 0.628546 0.70003 0.995213 0.758696L2.90188 1.0887C3.20896 1.14278 3.44271 1.39761 3.4693 1.70928L3.68471 4.27686C16.771 4.28236 16.8132 4.28878 16.8765 4.29611C17.387 4.37036 17.8362 4.63711 18.1424 5.04778C18.4485 5.45753 18.5769 5.96261 18.5035 6.46861L17.6336 12.4801C17.4695 13.6241 16.4759 14.4867 15.3209 14.4867H15.3163H5.3173H5.30996Z" fill="white"/>
<path fill-rule="evenodd" clip-rule="evenodd" d="M13.8469 9.04016H11.3059C10.9255 9.04016 10.6184 8.73216 10.6184 8.35266C10.6184 7.97316 10.9255 7.66516 11.3059 7.66516H13.8469C14.2264 7.66516 14.5344 7.97316 14.5344 8.35266C14.5344 8.73216 14.2264 9.04016 13.8469 9.04016Z" fill="white"/>
<path fill-rule="evenodd" clip-rule="evenodd" d="M4.9156 16.9768C5.19152 16.9768 5.41427 17.1996 5.41427 17.4755C5.41427 17.7514 5.19152 17.9751 4.9156 17.9751C4.63877 17.9751 4.41602 17.7514 4.41602 17.4755C4.41602 17.1996 4.63877 16.9768 4.9156 16.9768Z" fill="white"/>
<mask id="mask0_3335_3221" style="mask-type:alpha" maskUnits="userSpaceOnUse" x="4" y="16" width="2" height="2">
<path fill-rule="evenodd" clip-rule="evenodd" d="M4.41553 17.4751C4.41553 17.7519 4.63828 17.9756 4.91603 17.9756C5.19194 17.9756 5.41469 17.7519 5.41469 17.4751C5.41469 17.1992 5.19194 16.9764 4.91603 16.9764C4.63828 16.9764 4.41553 17.1992 4.41553 17.4751Z" fill="white"/>
</mask>
<g mask="url(#mask0_3335_3221)">
<path fill-rule="evenodd" clip-rule="evenodd" d="M-0.166992 22.558H9.99792V12.3931H-0.166992V22.558Z" fill="white"/>
</g>
<path fill-rule="evenodd" clip-rule="evenodd" d="M4.91468 17.2874C4.8111 17.2874 4.72677 17.3718 4.72677 17.4754C4.72677 17.6834 5.10352 17.6834 5.10352 17.4754C5.10352 17.3718 5.01827 17.2874 4.91468 17.2874ZM4.91468 18.6624C4.26018 18.6624 3.72852 18.1299 3.72852 17.4754C3.72852 16.8209 4.26018 16.2892 4.91468 16.2892C5.56918 16.2892 6.10177 16.8209 6.10177 17.4754C6.10177 18.1299 5.56918 18.6624 4.91468 18.6624Z" fill="white"/>
<path fill-rule="evenodd" clip-rule="evenodd" d="M15.2559 16.9768C15.5318 16.9768 15.7555 17.1996 15.7555 17.4755C15.7555 17.7514 15.5318 17.9751 15.2559 17.9751C14.9791 17.9751 14.7563 17.7514 14.7563 17.4755C14.7563 17.1996 14.9791 16.9768 15.2559 16.9768Z" fill="white"/>
<mask id="mask1_3335_3221" style="mask-type:alpha" maskUnits="userSpaceOnUse" x="14" y="16" width="2" height="2">
<path fill-rule="evenodd" clip-rule="evenodd" d="M14.7566 17.4751C14.7566 17.7519 14.9793 17.9756 15.2562 17.9756C15.5312 17.9756 15.7558 17.7519 15.7558 17.4751C15.7558 17.1992 15.5312 16.9764 15.2562 16.9764C14.9793 16.9764 14.7566 17.1992 14.7566 17.4751Z" fill="white"/>
</mask>
<g mask="url(#mask1_3335_3221)">
<path fill-rule="evenodd" clip-rule="evenodd" d="M10.1733 22.558H20.3392V12.3931H10.1733V22.558Z" fill="white"/>
</g>
<path fill-rule="evenodd" clip-rule="evenodd" d="M15.255 17.2874C15.1523 17.2874 15.068 17.3718 15.068 17.4754C15.0689 17.6853 15.4448 17.6834 15.4438 17.4754C15.4438 17.3718 15.3586 17.2874 15.255 17.2874ZM15.255 18.6624C14.6005 18.6624 14.0688 18.1299 14.0688 17.4754C14.0688 16.8209 14.6005 16.2892 15.255 16.2892C15.9104 16.2892 16.443 16.8209 16.443 17.4754C16.443 18.1299 15.9104 18.6624 15.255 18.6624Z" fill="white"/>
</svg>
