<svg width="24" height="24" viewBox="0 0 24 24" fill="none" xmlns="http://www.w3.org/2000/svg">
<path d="M23.3899 11.2006C23.9431 10.6613 24.1385 9.86993 23.8997 9.13516C23.6609 8.40038 23.0377 7.87497 22.2732 7.76385L16.4399 6.91619C16.4292 6.91465 16.4201 6.90794 16.4153 6.89835L13.8067 1.61256C13.4649 0.919747 12.7725 0.489258 11.9999 0.489258C11.2272 0.489258 10.5349 0.919747 10.1931 1.61256L7.5844 6.89835C7.57967 6.90794 7.57053 6.91454 7.55985 6.91619L1.7266 7.76385C0.962099 7.87497 0.338887 8.40038 0.10013 9.13516C-0.138627 9.86993 0.0567398 10.6613 0.609911 11.2006L4.83088 15.3151C4.83859 15.3226 4.84212 15.3334 4.84024 15.3439L3.84381 21.1537C3.7132 21.9151 4.02045 22.6703 4.64543 23.1243C5.27051 23.5786 6.08358 23.6372 6.76737 23.2777L11.9848 20.5348C11.9942 20.5297 12.0057 20.5298 12.0152 20.5348L17.2326 23.2777C17.53 23.4341 17.8518 23.5113 18.1721 23.5113C18.588 23.5113 19.0013 23.3809 19.3544 23.1243C19.9794 22.6703 20.2865 21.9151 20.156 21.1536L19.1596 15.3439C19.1577 15.3334 19.1614 15.3226 19.1689 15.3151L23.3899 11.2006ZM17.2057 15.6789L18.2021 21.4886C18.2048 21.504 18.2056 21.5087 18.1891 21.5205C18.1727 21.5324 18.1686 21.5302 18.1548 21.523L12.9373 18.7799C12.3503 18.4714 11.6493 18.4714 11.0621 18.7799L5.84472 21.5229C5.83095 21.53 5.82677 21.5323 5.81036 21.5204C5.79395 21.5085 5.79472 21.5039 5.79736 21.4886L6.7938 15.6788C6.90591 15.0251 6.68929 14.3585 6.21431 13.8954L1.99355 9.78105C1.98243 9.77015 1.97902 9.76696 1.98529 9.74769C1.99157 9.72841 1.9962 9.72775 2.01162 9.72544L7.84486 8.87779C8.50133 8.78242 9.06848 8.37043 9.36197 7.77563L11.9707 2.48973C11.9776 2.47585 11.9796 2.47155 11.9999 2.47155C12.0201 2.47155 12.0222 2.47585 12.029 2.48973L14.6377 7.77563C14.9313 8.37043 15.4984 8.78253 16.1549 8.87779L21.9881 9.72544C22.0035 9.72775 22.0082 9.72841 22.0144 9.74769C22.0207 9.76696 22.0173 9.77026 22.0062 9.78105L17.7852 13.8955C17.3103 14.3585 17.0937 15.0252 17.2057 15.6789Z" fill="white"/>
</svg>
