<svg width="9" height="11" viewBox="0 0 9 11" fill="none" xmlns="http://www.w3.org/2000/svg">
<path d="M4.5 1.83317C3.48748 1.83317 2.66667 2.65398 2.66667 3.6665C2.66667 4.67903 3.48748 5.49984 4.5 5.49984C5.51252 5.49984 6.33333 4.67903 6.33333 3.6665C6.33333 2.65398 5.51252 1.83317 4.5 1.83317ZM1.75 3.6665C1.75 2.14772 2.98122 0.916504 4.5 0.916504C6.01878 0.916504 7.25 2.14772 7.25 3.6665C7.25 5.18529 6.01878 6.4165 4.5 6.4165C2.98122 6.4165 1.75 5.18529 1.75 3.6665ZM2.66667 8.24984C1.90728 8.24984 1.29167 8.86545 1.29167 9.62484C1.29167 9.87797 1.08646 10.0832 0.833333 10.0832C0.580203 10.0832 0.375 9.87797 0.375 9.62484C0.375 8.35918 1.40101 7.33317 2.66667 7.33317H6.33333C7.59899 7.33317 8.625 8.35918 8.625 9.62484C8.625 9.87797 8.4198 10.0832 8.16667 10.0832C7.91354 10.0832 7.70833 9.87797 7.70833 9.62484C7.70833 8.86545 7.09272 8.24984 6.33333 8.24984H2.66667Z" fill="#0C0B15"/>
</svg>
