<svg width="17" height="17" viewBox="0 0 17 17" fill="none" xmlns="http://www.w3.org/2000/svg">
<path d="M8.33272 16.6655C7.69188 16.6655 7.05188 16.4222 6.56272 15.9364L5.95438 15.328C5.71855 15.093 5.40272 14.963 5.06772 14.9622H4.21188C2.82855 14.9622 1.70272 13.8364 1.70272 12.453V11.5964C1.70188 11.2622 1.57188 10.9464 1.33605 10.7089L0.737717 10.1114C-0.242283 9.1372 -0.24645 7.5447 0.72855 6.56386L1.33688 5.9547C1.57188 5.71886 1.70188 5.40303 1.70272 5.06803V4.21303C1.70272 2.82886 2.82855 1.70303 4.21188 1.70303H5.06855C5.40272 1.70303 5.71772 1.57303 5.95522 1.33553L6.55438 0.73803C7.52855 -0.24197 9.12022 -0.24697 10.1019 0.728864L10.7102 1.3372C10.9469 1.57303 11.2619 1.70303 11.5961 1.70303H12.4527C13.8361 1.70303 14.9619 2.82886 14.9619 4.21303V5.06886C14.9627 5.40303 15.0927 5.71886 15.3286 5.95636L15.9269 6.5547C16.4011 7.02636 16.6636 7.6547 16.6661 8.32553C16.6677 8.9922 16.4111 9.6197 15.9436 10.0939C15.9352 10.1022 15.9277 10.1114 15.9194 10.1189L15.3277 10.7105C15.0927 10.9464 14.9627 11.2622 14.9619 11.5972V12.453C14.9619 13.8364 13.8361 14.9622 12.4527 14.9622H11.5961C11.2619 14.963 10.9461 15.093 10.7094 15.3289L10.1102 15.9272C9.62188 16.4189 8.97688 16.6655 8.33272 16.6655Z" fill="#FFA800"/>
<path d="M7.55732 11C7.37262 11.0009 7.18792 10.9354 7.04554 10.8007L5.21393 9.06651C4.93111 8.79715 4.92822 8.3599 5.20816 8.0887C5.4881 7.81657 5.94504 7.81381 6.22882 8.08224L7.54674 9.32941L10.7646 6.20595C11.0455 5.93383 11.5024 5.93106 11.7852 6.1995C12.069 6.46886 12.0719 6.90703 11.792 7.17731L8.06621 10.7943C7.92576 10.9308 7.74202 10.9991 7.55732 11" fill="white"/>
</svg>
