<svg width="20" height="20" viewBox="0 0 20 20" fill="none" xmlns="http://www.w3.org/2000/svg">
<g id="Iconly/Bold/Play">
<g id="Play">
<path id="Play_2" d="M10.0001 1.66602C5.4071 1.66602 1.66675 5.40456 1.66675 10.0042C1.66675 14.5941 5.4071 18.3327 10.0001 18.3327C14.5931 18.3327 18.3334 14.5941 18.3334 10.0042C18.3334 5.40456 14.5931 1.66602 10.0001 1.66602Z" fill="#FFA800"/>
</g>
<path id="Stroke 1" fill-rule="evenodd" clip-rule="evenodd" d="M10.6135 5.39824L11.6287 7.54574C11.7282 7.75656 11.9203 7.90275 12.143 7.93658L14.4141 8.28271C14.9752 8.36849 15.1985 9.08856 14.7924 9.50114L13.1501 11.172C12.9887 11.3363 12.9152 11.5725 12.9534 11.8045L13.341 14.1634C13.4364 14.747 12.8499 15.1922 12.3483 14.9161L10.3185 13.8016C10.1195 13.6922 9.88112 13.6922 9.68155 13.8016L7.65167 14.9161C7.15013 15.1922 6.56355 14.747 6.65958 14.1634L7.04658 11.8045C7.08476 11.5725 7.01129 11.3363 6.8499 11.172L5.2076 9.50114C4.80151 9.08856 5.0248 8.36849 5.58592 8.28271L7.85703 7.93658C8.07974 7.90275 8.27238 7.75656 8.37187 7.54574L9.38652 5.39824C9.63758 4.86725 10.3624 4.86725 10.6135 5.39824Z" stroke="white" stroke-linecap="round" stroke-linejoin="round"/>
</g>
</svg>
