<svg width="25" height="18" viewBox="0 0 25 18" fill="none" xmlns="http://www.w3.org/2000/svg">
<path d="M24.4777 3.0929C24.1902 2.01721 23.3432 1.17019 22.2675 0.88269C20.3177 0.360229 12.5 0.360229 12.5 0.360229C12.5 0.360229 4.68228 0.360229 2.73247 0.88269C1.65698 1.17019 0.809766 2.01721 0.522314 3.0929C0 5.0425 0 9.11037 0 9.11037C0 9.11037 0 13.1781 0.522314 15.1276C0.809766 16.2032 1.65698 17.0505 2.73247 17.338C4.68228 17.8602 12.5 17.8602 12.5 17.8602C12.5 17.8602 20.3177 17.8602 22.2675 17.338C23.3432 17.0505 24.1902 16.2032 24.4777 15.1276C25 13.1781 25 9.11037 25 9.11037C25 9.11037 25 5.0425 24.4777 3.0929ZM9.99985 12.8604V5.36028L16.4949 9.11037L9.99985 12.8604Z" fill="white"/>
</svg>
