<svg width="20" height="13" viewBox="0 0 20 13" fill="none" xmlns="http://www.w3.org/2000/svg">
<path d="M9.96805 6.35196C9.48805 6.38396 9.04005 6.19196 8.56005 6.03196C6.03205 5.19996 3.50405 4.36796 1.00805 3.50396C0.848046 3.43996 0.720046 3.37596 0.592046 3.27996C0.432046 3.15196 0.432046 2.99196 0.592046 2.86396C0.720046 2.76796 0.880046 2.67196 1.04005 2.63996C3.72805 1.83996 6.41605 1.03996 9.10405 0.207965C9.71205 0.0159649 10.32 0.0159649 10.96 0.207965C13.616 1.00796 16.304 1.80796 18.96 2.60796C19.12 2.67196 19.2801 2.73596 19.4401 2.83196C19.632 2.95996 19.632 3.15196 19.4401 3.27996C19.312 3.37596 19.184 3.43996 19.0561 3.47196C16.4001 4.36796 13.712 5.26396 11.024 6.12796C10.672 6.28796 10.352 6.35196 9.96805 6.35196Z" fill="white"/>
<path d="M4.65603 6.48007C4.27203 6.38407 4.17603 6.64007 4.17603 6.83207C4.17603 7.85607 4.17603 8.84807 4.17603 9.87208C4.17603 10.2241 4.30403 10.4481 4.52803 10.6721C4.62403 10.7681 4.72003 10.8321 4.81603 10.8961C5.45603 11.3441 6.19203 11.6321 6.96003 11.8241C8.46403 12.2401 10 12.3041 11.536 12.1121C12.528 11.9841 13.52 11.7281 14.448 11.3121C14.864 11.1201 15.248 10.8961 15.536 10.5761C15.728 10.3841 15.824 10.1921 15.792 9.90408C15.824 8.94408 15.824 7.95207 15.824 6.96007C15.824 6.41607 15.44 6.48007 15.28 6.51207C13.872 6.99207 12.432 7.44007 11.024 7.92007C10.32 8.14407 9.64803 8.14407 8.94403 7.92007L4.65603 6.48007Z" fill="white"/>
<path d="M17.968 5.55187C17.84 5.58387 17.808 5.64787 17.808 5.77587C17.808 6.67187 17.808 7.56787 17.808 8.46387C17.808 8.55987 17.776 8.65587 17.744 8.75187C17.552 9.23187 17.328 9.71187 17.168 10.1919C17.008 10.6399 17.104 11.0879 17.424 11.4399C17.52 11.5679 17.648 11.6639 17.776 11.7599C17.904 11.8559 18.096 11.9199 18.256 11.9519C18.544 11.9839 18.768 11.8239 18.96 11.6639C19.056 11.5679 19.152 11.4719 19.248 11.3759C19.472 11.0879 19.536 10.6719 19.44 10.2879C19.312 9.74387 19.088 9.26387 18.832 8.78387C18.768 8.68787 18.736 8.55987 18.736 8.46387C18.736 7.47187 18.736 6.51187 18.736 5.51987C18.736 5.32787 18.576 5.35987 18.512 5.39187L17.968 5.55187Z" fill="white"/>
</svg>
