<svg width="18" height="18" viewBox="0 0 18 18" fill="none" xmlns="http://www.w3.org/2000/svg">
<path d="M16.0962 6.9231H1.90387C1.62695 6.9231 1.38464 7.1654 1.38464 7.44233V15.9231C1.38464 16.6846 2.00772 17.3077 2.76926 17.3077H15.2308C15.9923 17.3077 16.6154 16.6846 16.6154 15.9231V7.44233C16.6154 7.1654 16.3731 6.9231 16.0962 6.9231ZM6.57695 14.5385C6.57695 14.7462 6.43849 14.8846 6.2308 14.8846H4.84618C4.63849 14.8846 4.50003 14.7462 4.50003 14.5385V13.1539C4.50003 12.9462 4.63849 12.8077 4.84618 12.8077H6.2308C6.43849 12.8077 6.57695 12.9462 6.57695 13.1539V14.5385ZM6.57695 11.0769C6.57695 11.2846 6.43849 11.4231 6.2308 11.4231H4.84618C4.63849 11.4231 4.50003 11.2846 4.50003 11.0769V9.69233C4.50003 9.48463 4.63849 9.34617 4.84618 9.34617H6.2308C6.43849 9.34617 6.57695 9.48463 6.57695 9.69233V11.0769ZM10.0385 14.5385C10.0385 14.7462 9.90003 14.8846 9.69234 14.8846H8.30772C8.10003 14.8846 7.96157 14.7462 7.96157 14.5385V13.1539C7.96157 12.9462 8.10003 12.8077 8.30772 12.8077H9.69234C9.90003 12.8077 10.0385 12.9462 10.0385 13.1539V14.5385ZM10.0385 11.0769C10.0385 11.2846 9.90003 11.4231 9.69234 11.4231H8.30772C8.10003 11.4231 7.96157 11.2846 7.96157 11.0769V9.69233C7.96157 9.48463 8.10003 9.34617 8.30772 9.34617H9.69234C9.90003 9.34617 10.0385 9.48463 10.0385 9.69233V11.0769ZM13.5 14.5385C13.5 14.7462 13.3616 14.8846 13.1539 14.8846H11.7693C11.5616 14.8846 11.4231 14.7462 11.4231 14.5385V13.1539C11.4231 12.9462 11.5616 12.8077 11.7693 12.8077H13.1539C13.3616 12.8077 13.5 12.9462 13.5 13.1539V14.5385ZM13.5 11.0769C13.5 11.2846 13.3616 11.4231 13.1539 11.4231H11.7693C11.5616 11.4231 11.4231 11.2846 11.4231 11.0769V9.69233C11.4231 9.48463 11.5616 9.34617 11.7693 9.34617H13.1539C13.3616 9.34617 13.5 9.48463 13.5 9.69233V11.0769Z" fill="white"/>
<path d="M15.2308 2.42315H13.8462H13.5V1.73084C13.5 1.177 13.05 0.692383 12.4616 0.692383C11.9077 0.692383 11.4231 1.14238 11.4231 1.73084V2.42315H6.57695V1.73084C6.57695 1.177 6.12695 0.692383 5.53849 0.692383C4.98464 0.692383 4.50003 1.14238 4.50003 1.73084V2.42315H4.15387H2.76926C2.00772 2.42315 1.38464 3.04623 1.38464 3.80777V4.67315C1.38464 4.95008 1.62695 5.19238 1.90387 5.19238H16.0962C16.3731 5.19238 16.6154 4.95008 16.6154 4.67315V3.80777C16.6154 3.04623 15.9923 2.42315 15.2308 2.42315Z" fill="white"/>
</svg>
