<svg width="18" height="18" viewBox="0 0 18 18" fill="none" xmlns="http://www.w3.org/2000/svg">
<path d="M15.6461 6.78456C15.7838 6.78481 15.9165 6.83637 16.0183 6.92917C16.12 7.02197 16.1836 7.14936 16.1965 7.28648V15.0922C16.1952 15.5201 16.0296 15.9311 15.7339 16.2403C15.4382 16.5496 15.035 16.7334 14.6076 16.7538H3.46149C3.03364 16.7525 2.62263 16.5869 2.31341 16.2912C2.00418 15.9955 1.82037 15.5923 1.79995 15.1649V7.3384C1.80021 7.20068 1.85177 7.06799 1.94457 6.96623C2.03737 6.86446 2.16476 6.80093 2.30188 6.78802H15.6461V6.78456ZM11.3573 9.0934L11.3192 9.12109L8.14841 12.5584L6.71188 11.1738C6.639 11.1008 6.54157 11.0575 6.43856 11.0524C6.33555 11.0473 6.23432 11.0807 6.15457 11.1461L6.11995 11.1738L5.53841 11.6999C5.50281 11.7301 5.47367 11.7671 5.45274 11.8088C5.43181 11.8505 5.41952 11.896 5.41661 11.9425C5.4137 11.9891 5.42023 12.0358 5.43581 12.0797C5.45138 12.1237 5.47569 12.1641 5.50726 12.1984L5.53841 12.233L7.56688 14.1542C7.72485 14.3097 7.93709 14.3979 8.1588 14.3999C8.26919 14.4029 8.37897 14.3825 8.48096 14.3402C8.58295 14.2978 8.67487 14.2344 8.75072 14.1542L10.4469 12.368L10.5819 12.2261L10.7619 12.0357L12.4926 10.2011C12.5521 10.1313 12.5878 10.0443 12.5947 9.95288C12.6015 9.86142 12.5791 9.77015 12.5307 9.69225L12.5065 9.66109L11.9111 9.12802C11.8397 9.05428 11.7433 9.00986 11.6409 9.00345C11.5384 8.99705 11.4373 9.02913 11.3573 9.0934ZM15.6461 1.24609C16.0865 1.24701 16.5086 1.42236 16.82 1.73376C17.1314 2.04516 17.3067 2.46725 17.3076 2.90763V4.56917C17.3076 4.71606 17.2493 4.85693 17.1454 4.9608C17.0416 5.06467 16.9007 5.12302 16.7538 5.12302H1.24611C1.09922 5.12302 0.958345 5.06467 0.854479 4.9608C0.750612 4.85693 0.692261 4.71606 0.692261 4.56917V2.90763C0.693175 2.46725 0.868524 2.04516 1.17992 1.73376C1.49133 1.42236 1.91341 1.24701 2.3538 1.24609H15.6461Z" fill="white"/>
</svg>
