<svg width="18" height="15" viewBox="0 0 18 15" fill="none" xmlns="http://www.w3.org/2000/svg">
<path d="M18 5.55231C18 5.09518 17.5437 4.72592 16.9818 4.72592H9.49748L5.80411 0C5.80411 0 5.60638 0.155052 5.36176 0.345593C5.11799 0.536979 5.19995 1.05072 5.54555 1.49391L8.07243 4.72592H1.01777C0.455439 4.7255 0 5.09475 0 5.55231V6.37827H18C18 6.37869 18 6.00944 18 5.55231Z" fill="white"/>
<path d="M14.2157 14.776C15.3396 14.776 16.2509 13.8638 16.2509 12.7417L17.2682 7.22827H2.7668C1.64299 7.22827 0.731689 8.13957 0.731689 9.26339L1.74903 14.776H14.2157ZM12.5604 9.51814C12.5604 8.95624 12.969 8.49995 13.4722 8.49995H14.3843V12.2322C14.3843 12.7941 13.9758 13.2495 13.4722 13.2495H12.5604V9.51814ZM9.38039 9.51814C9.38039 8.95624 9.78936 8.49995 10.2921 8.49995H11.2047V12.2322C11.2047 12.7941 10.7961 13.2495 10.2921 13.2495H9.38039V9.51814ZM6.20077 9.51814C6.20077 8.95624 6.60931 8.49995 7.11249 8.49995H8.02464V12.2322C8.02464 12.7941 7.61609 13.2495 7.11249 13.2495H6.20077V9.51814ZM3.02029 9.51814C3.02029 8.95624 3.42884 8.49995 3.93244 8.49995H4.84416V12.2322C4.84416 12.7941 4.43562 13.2495 3.93244 13.2495H3.02029V9.51814Z" fill="white"/>
</svg>
